<svg width="3653" height="832" viewBox="0 0 3653 832" fill="none" xmlns="http://www.w3.org/2000/svg">
<path d="M378.349 226.667L517.885 422.447L182.57 366.203L378.349 226.667Z" fill="#010101"/>
<path fill-rule="evenodd" clip-rule="evenodd" d="M490.404 586.288L350.868 390.508L155.088 530.044L262.72 548.097L312.345 620.17L382.771 568.234L490.404 586.288Z" fill="#010101"/>
<path fill-rule="evenodd" clip-rule="evenodd" d="M366.479 297.436L505.194 498.112L391.24 478.998L374.182 535.229L341.089 529.678L337.924 470.055L337.122 469.92L314.602 525.235L281.585 519.697L283.825 460.981L169.878 441.868L366.479 297.436Z" fill="#F4431C"/>
<path d="M735.682 383.5C736.288 374.939 734.015 368.311 728.864 363.614C723.788 358.917 715.758 356.568 704.773 356.568C697.5 356.568 691.288 357.515 686.137 359.409C680.985 361.227 676.932 363.803 673.978 367.136C671.023 370.394 669.167 374.182 668.409 378.5C667.728 381.909 667.917 384.939 668.978 387.591C670.038 390.242 671.894 392.591 674.546 394.636C677.273 396.682 680.644 398.462 684.659 399.977C688.75 401.492 693.334 402.818 698.409 403.954L717.5 408.5C728.561 411 738.144 414.333 746.25 418.5C754.432 422.591 761.061 427.553 766.137 433.386C771.212 439.144 774.697 445.773 776.591 453.273C778.485 460.773 778.637 469.182 777.046 478.5C774.621 493.197 768.826 505.811 759.659 516.341C750.568 526.871 738.674 534.939 723.978 540.545C709.356 546.151 692.349 548.954 672.955 548.954C653.561 548.954 637.084 546.038 623.523 540.204C610.038 534.295 600.265 525.394 594.205 513.5C588.144 501.606 586.515 486.606 589.318 468.5H643.068C642.235 476 643.182 482.25 645.909 487.25C648.712 492.25 653.031 496.038 658.864 498.614C664.697 501.189 671.743 502.477 680 502.477C687.576 502.477 694.205 501.454 699.887 499.409C705.644 497.364 710.228 494.523 713.637 490.886C717.121 487.25 719.243 483.083 720 478.386C720.758 474.068 720.038 470.318 717.841 467.136C715.72 463.954 712.084 461.189 706.932 458.841C701.856 456.492 695.19 454.371 686.932 452.477L663.637 446.795C644.394 442.098 629.811 434.598 619.887 424.295C610.038 413.992 606.553 400.015 609.432 382.364C611.856 367.894 617.841 355.242 627.387 344.409C637.008 333.576 649.167 325.167 663.864 319.182C678.637 313.121 694.887 310.091 712.614 310.091C730.644 310.091 745.796 313.159 758.068 319.295C770.417 325.356 779.318 333.917 784.773 344.977C790.303 355.962 791.894 368.803 789.546 383.5H735.682Z" fill="#010101"/>
<path d="M941.364 313.273H997.5L972.614 463.386C969.735 480.735 963.106 495.848 952.727 508.727C942.424 521.53 929.28 531.454 913.295 538.5C897.311 545.47 879.508 548.954 859.886 548.954C840.189 548.954 823.561 545.47 810 538.5C796.439 531.454 786.629 521.53 780.568 508.727C774.508 495.848 772.879 480.735 775.682 463.386L800.568 313.273H856.818L832.614 458.5C831.326 466.53 831.932 473.689 834.432 479.977C837.008 486.189 841.174 491.114 846.932 494.75C852.689 498.311 859.735 500.091 868.068 500.091C876.477 500.091 884.167 498.311 891.136 494.75C898.106 491.114 903.864 486.189 908.409 479.977C912.955 473.689 915.871 466.53 917.159 458.5L941.364 313.273Z" fill="#010101"/>
<path d="M957.795 546L996.432 313.273H1092.57C1109.99 313.273 1124.54 316.417 1136.2 322.704C1147.87 328.917 1156.17 337.856 1161.09 349.523C1166.02 361.114 1167.15 374.864 1164.5 390.773C1161.92 406.833 1156.17 420.507 1147.23 431.795C1138.36 443.007 1126.92 451.568 1112.91 457.477C1098.97 463.386 1083.14 466.341 1065.41 466.341H1004.61L1012.11 422.023H1062.45C1070.86 422.023 1078.14 420.924 1084.27 418.727C1090.41 416.454 1095.3 413.045 1098.93 408.5C1102.64 403.879 1105.11 397.97 1106.32 390.773C1107.45 383.576 1106.92 377.629 1104.73 372.932C1102.61 368.159 1098.86 364.598 1093.48 362.25C1088.17 359.826 1081.36 358.614 1073.02 358.614H1045.3L1014.05 546H957.795ZM1106.43 439.636L1146.77 546H1085.41L1046.32 439.636H1106.43Z" fill="#010101"/>
<path d="M1309.43 389.295C1308.98 384.523 1307.92 380.318 1306.25 376.682C1304.58 372.97 1302.31 369.826 1299.43 367.25C1296.55 364.674 1292.99 362.742 1288.75 361.454C1284.51 360.091 1279.58 359.409 1273.98 359.409C1262.77 359.409 1252.39 362.136 1242.84 367.591C1233.3 373.045 1225.23 381 1218.64 391.454C1212.05 401.833 1207.54 414.447 1205.11 429.295C1202.69 444.22 1202.61 456.947 1204.89 467.477C1207.23 478.007 1211.93 486.038 1218.98 491.568C1226.02 497.098 1235.34 499.864 1246.93 499.864C1257.31 499.864 1266.48 498.197 1274.43 494.864C1282.39 491.454 1288.83 486.644 1293.75 480.432C1298.75 474.22 1301.89 466.909 1303.18 458.5L1313.52 459.75H1256.93L1263.75 418.727H1363.98L1358.86 449.523C1355.45 470.356 1348.11 488.197 1336.82 503.045C1325.61 517.894 1311.59 529.295 1294.77 537.25C1278.03 545.204 1259.66 549.182 1239.66 549.182C1217.54 549.182 1198.86 544.371 1183.64 534.75C1168.41 525.129 1157.58 511.417 1151.14 493.614C1144.7 475.735 1143.48 454.523 1147.5 429.977C1150.68 410.886 1156.33 393.954 1164.43 379.182C1172.61 364.333 1182.61 351.757 1194.43 341.454C1206.33 331.151 1219.47 323.348 1233.86 318.045C1248.26 312.742 1263.22 310.091 1278.75 310.091C1292.16 310.091 1304.36 312.023 1315.34 315.886C1326.33 319.75 1335.72 325.204 1343.52 332.25C1351.33 339.295 1357.2 347.667 1361.14 357.364C1365.15 367.061 1366.89 377.704 1366.36 389.295H1309.43Z" fill="#010101"/>
<path d="M1339 546L1377.64 313.273H1539.91L1532.18 358.954H1426.16L1418.43 406.682H1516.16L1508.43 452.477H1410.7L1402.98 500.318H1509L1501.27 546H1339Z" fill="#010101"/>
<rect x="1610" y="408" width="42" height="42" fill="#010101"/>
<path d="M1759.7 534V330.364H1841.23C1856.21 330.364 1868.71 332.584 1878.72 337.026C1888.73 341.467 1896.25 347.632 1901.29 355.52C1906.33 363.342 1908.85 372.357 1908.85 382.565C1908.85 390.52 1907.26 397.513 1904.07 403.545C1900.89 409.511 1896.52 414.417 1890.95 418.261C1885.45 422.04 1879.15 424.724 1872.06 426.315V428.304C1879.81 428.635 1887.07 430.823 1893.83 434.866C1900.66 438.91 1906.2 444.578 1910.44 451.869C1914.68 459.095 1916.8 467.712 1916.8 477.722C1916.8 488.527 1914.12 498.171 1908.75 506.656C1903.44 515.075 1895.59 521.737 1885.18 526.642C1874.77 531.547 1861.95 534 1846.7 534H1759.7ZM1802.75 498.801H1837.85C1849.85 498.801 1858.6 496.514 1864.1 491.94C1869.6 487.3 1872.36 481.135 1872.36 473.446C1872.36 467.812 1871 462.84 1868.28 458.531C1865.56 454.223 1861.68 450.842 1856.64 448.389C1851.67 445.937 1845.74 444.71 1838.85 444.71H1802.75V498.801ZM1802.75 415.577H1834.67C1840.57 415.577 1845.81 414.549 1850.38 412.494C1855.02 410.373 1858.67 407.39 1861.32 403.545C1864.04 399.701 1865.39 395.094 1865.39 389.724C1865.39 382.366 1862.78 376.434 1857.54 371.926C1852.37 367.419 1845.01 365.165 1835.47 365.165H1802.75V415.577ZM1944.02 534V381.273H1986.38V534H1944.02ZM1965.3 361.585C1959 361.585 1953.6 359.497 1949.09 355.321C1944.65 351.079 1942.43 346.008 1942.43 340.108C1942.43 334.275 1944.65 329.27 1949.09 325.094C1953.6 320.851 1959 318.73 1965.3 318.73C1971.6 318.73 1976.97 320.851 1981.41 325.094C1985.91 329.27 1988.17 334.275 1988.17 340.108C1988.17 346.008 1985.91 351.079 1981.41 355.321C1976.97 359.497 1971.6 361.585 1965.3 361.585ZM2101.55 381.273V413.091H2009.57V381.273H2101.55ZM2030.45 344.682H2072.81V487.068C2072.81 490.979 2073.41 494.028 2074.6 496.216C2075.79 498.337 2077.45 499.829 2079.57 500.69C2081.76 501.552 2084.28 501.983 2087.13 501.983C2089.12 501.983 2091.11 501.817 2093.09 501.486C2095.08 501.088 2096.61 500.79 2097.67 500.591L2104.33 532.111C2102.21 532.774 2099.23 533.536 2095.38 534.398C2091.54 535.326 2086.86 535.889 2081.36 536.088C2071.15 536.486 2062.2 535.127 2054.51 532.011C2046.89 528.896 2040.96 524.057 2036.72 517.494C2032.47 510.932 2030.39 502.646 2030.45 492.636V344.682ZM2196.5 536.983C2180.86 536.983 2167.4 533.669 2156.13 527.04C2144.93 520.345 2136.31 511.064 2130.28 499.199C2124.32 487.333 2121.33 473.678 2121.33 458.233C2121.33 442.589 2124.35 428.867 2130.38 417.068C2136.48 405.203 2145.13 395.955 2156.33 389.327C2167.54 382.632 2180.86 379.284 2196.3 379.284C2209.63 379.284 2221.29 381.704 2231.3 386.543C2241.31 391.382 2249.23 398.176 2255.07 406.926C2260.9 415.676 2264.12 425.951 2264.71 437.75H2224.74C2223.61 430.127 2220.63 423.995 2215.79 419.355C2211.02 414.649 2204.76 412.295 2197 412.295C2190.44 412.295 2184.7 414.085 2179.8 417.665C2174.96 421.178 2171.18 426.315 2168.46 433.077C2165.75 439.838 2164.39 448.025 2164.39 457.636C2164.39 467.381 2165.71 475.667 2168.36 482.494C2171.08 489.322 2174.89 494.526 2179.8 498.105C2184.7 501.685 2190.44 503.474 2197 503.474C2201.84 503.474 2206.18 502.48 2210.03 500.491C2213.94 498.503 2217.15 495.619 2219.67 491.841C2222.26 487.996 2223.95 483.389 2224.74 478.02H2264.71C2264.05 489.687 2260.87 499.961 2255.17 508.844C2249.53 517.66 2241.74 524.554 2231.8 529.526C2221.86 534.497 2210.09 536.983 2196.5 536.983ZM2360.84 536.983C2345.39 536.983 2332.04 533.702 2320.77 527.139C2309.57 520.51 2300.91 511.296 2294.82 499.497C2288.72 487.632 2285.67 473.877 2285.67 458.233C2285.67 442.456 2288.72 428.669 2294.82 416.869C2300.91 405.004 2309.57 395.79 2320.77 389.227C2332.04 382.598 2345.39 379.284 2360.84 379.284C2376.28 379.284 2389.61 382.598 2400.81 389.227C2412.08 395.79 2420.76 405.004 2426.86 416.869C2432.96 428.669 2436.01 442.456 2436.01 458.233C2436.01 473.877 2432.96 487.632 2426.86 499.497C2420.76 511.296 2412.08 520.51 2400.81 527.139C2389.61 533.702 2376.28 536.983 2360.84 536.983ZM2361.04 504.17C2368.06 504.17 2373.93 502.182 2378.64 498.205C2383.34 494.161 2386.89 488.659 2389.28 481.699C2391.73 474.739 2392.96 466.817 2392.96 457.935C2392.96 449.052 2391.73 441.131 2389.28 434.17C2386.89 427.21 2383.34 421.708 2378.64 417.665C2373.93 413.621 2368.06 411.599 2361.04 411.599C2353.94 411.599 2347.98 413.621 2343.14 417.665C2338.37 421.708 2334.75 427.21 2332.3 434.17C2329.92 441.131 2328.72 449.052 2328.72 457.935C2328.72 466.817 2329.92 474.739 2332.3 481.699C2334.75 488.659 2338.37 494.161 2343.14 498.205C2347.98 502.182 2353.94 504.17 2361.04 504.17ZM2463.55 534V381.273H2505.91V534H2463.55ZM2484.83 361.585C2478.53 361.585 2473.13 359.497 2468.62 355.321C2464.18 351.079 2461.96 346.008 2461.96 340.108C2461.96 334.275 2464.18 329.27 2468.62 325.094C2473.13 320.851 2478.53 318.73 2484.83 318.73C2491.13 318.73 2496.5 320.851 2500.94 325.094C2505.45 329.27 2507.7 334.275 2507.7 340.108C2507.7 346.008 2505.45 351.079 2500.94 355.321C2496.5 359.497 2491.13 361.585 2484.83 361.585ZM2582.2 445.705V534H2539.84V381.273H2580.21V408.219H2582C2585.38 399.336 2591.05 392.31 2599 387.139C2606.96 381.902 2616.6 379.284 2627.94 379.284C2638.54 379.284 2647.79 381.604 2655.68 386.244C2663.57 390.884 2669.7 397.513 2674.07 406.131C2678.45 414.682 2680.64 424.89 2680.64 436.756V534H2638.28V444.312C2638.34 434.966 2635.96 427.674 2631.12 422.438C2626.28 417.134 2619.62 414.483 2611.13 414.483C2605.43 414.483 2600.39 415.709 2596.02 418.162C2591.71 420.615 2588.33 424.194 2585.88 428.901C2583.49 433.541 2582.27 439.142 2582.2 445.705ZM2779.62 534V330.364H2859.96C2875.34 330.364 2888.47 333.115 2899.34 338.616C2910.27 344.052 2918.59 351.775 2924.29 361.784C2930.06 371.727 2932.94 383.427 2932.94 396.884C2932.94 410.406 2930.03 422.04 2924.19 431.784C2918.36 441.462 2909.91 448.886 2898.84 454.057C2887.84 459.227 2874.51 461.812 2858.87 461.812H2805.08V427.21H2851.91C2860.13 427.21 2866.96 426.083 2872.39 423.83C2877.83 421.576 2881.87 418.195 2884.52 413.688C2887.24 409.18 2888.6 403.579 2888.6 396.884C2888.6 390.122 2887.24 384.421 2884.52 379.781C2881.87 375.141 2877.79 371.628 2872.29 369.241C2866.86 366.789 2859.99 365.562 2851.71 365.562H2822.67V534H2779.62ZM2889.59 441.33L2940.2 534H2892.67L2843.16 441.33H2889.59ZM3006.13 536.884C2996.38 536.884 2987.7 535.193 2980.08 531.812C2972.45 528.366 2966.42 523.295 2961.98 516.599C2957.6 509.838 2955.42 501.42 2955.42 491.344C2955.42 482.859 2956.97 475.733 2960.09 469.966C2963.21 464.199 2967.45 459.559 2972.82 456.045C2978.19 452.532 2984.28 449.881 2991.11 448.091C2998.01 446.301 3005.23 445.042 3012.79 444.312C3021.67 443.384 3028.83 442.523 3034.27 441.727C3039.7 440.866 3043.65 439.606 3046.1 437.949C3048.55 436.292 3049.78 433.839 3049.78 430.591V429.994C3049.78 423.697 3047.79 418.825 3043.81 415.378C3039.9 411.931 3034.33 410.207 3027.11 410.207C3019.48 410.207 3013.42 411.898 3008.91 415.278C3004.4 418.593 3001.42 422.769 2999.96 427.807L2960.79 424.625C2962.77 415.345 2966.69 407.324 2972.52 400.562C2978.35 393.735 2985.88 388.498 2995.09 384.852C3004.37 381.14 3015.11 379.284 3027.31 379.284C3035.79 379.284 3043.91 380.278 3051.67 382.267C3059.49 384.256 3066.42 387.338 3072.45 391.514C3078.55 395.69 3083.35 401.06 3086.87 407.622C3090.38 414.118 3092.13 421.907 3092.13 430.989V534H3051.96V512.821H3050.77C3048.32 517.594 3045.04 521.803 3040.93 525.449C3036.82 529.028 3031.88 531.846 3026.11 533.901C3020.35 535.889 3013.68 536.884 3006.13 536.884ZM3018.26 507.651C3024.49 507.651 3029.99 506.424 3034.76 503.972C3039.54 501.453 3043.28 498.072 3046 493.83C3048.72 489.587 3050.08 484.781 3050.08 479.412V463.205C3048.75 464.066 3046.93 464.862 3044.61 465.591C3042.35 466.254 3039.8 466.884 3036.95 467.48C3034.1 468.01 3031.25 468.508 3028.4 468.972C3025.55 469.369 3022.96 469.734 3020.64 470.065C3015.67 470.795 3011.33 471.955 3007.62 473.545C3003.91 475.136 3001.02 477.291 2998.97 480.009C2996.91 482.66 2995.88 485.974 2995.88 489.952C2995.88 495.719 2997.97 500.127 3002.15 503.176C3006.39 506.159 3011.76 507.651 3018.26 507.651ZM3168.55 536.884C3158.8 536.884 3150.12 535.193 3142.5 531.812C3134.87 528.366 3128.84 523.295 3124.4 516.599C3120.03 509.838 3117.84 501.42 3117.84 491.344C3117.84 482.859 3119.4 475.733 3122.51 469.966C3125.63 464.199 3129.87 459.559 3135.24 456.045C3140.61 452.532 3146.71 449.881 3153.53 448.091C3160.43 446.301 3167.65 445.042 3175.21 444.312C3184.09 443.384 3191.25 442.523 3196.69 441.727C3202.12 440.866 3206.07 439.606 3208.52 437.949C3210.97 436.292 3212.2 433.839 3212.2 430.591V429.994C3212.2 423.697 3210.21 418.825 3206.23 415.378C3202.32 411.931 3196.75 410.207 3189.53 410.207C3181.91 410.207 3175.84 411.898 3171.33 415.278C3166.82 418.593 3163.84 422.769 3162.38 427.807L3123.21 424.625C3125.2 415.345 3129.11 407.324 3134.94 400.562C3140.77 393.735 3148.3 388.498 3157.51 384.852C3166.79 381.14 3177.53 379.284 3189.73 379.284C3198.21 379.284 3206.33 380.278 3214.09 382.267C3221.91 384.256 3228.84 387.338 3234.87 391.514C3240.97 395.69 3245.77 401.06 3249.29 407.622C3252.8 414.118 3254.56 421.907 3254.56 430.989V534H3214.39V512.821H3213.19C3210.74 517.594 3207.46 521.803 3203.35 525.449C3199.24 529.028 3194.3 531.846 3188.53 533.901C3182.77 535.889 3176.11 536.884 3168.55 536.884ZM3180.68 507.651C3186.91 507.651 3192.41 506.424 3197.18 503.972C3201.96 501.453 3205.7 498.072 3208.42 493.83C3211.14 489.587 3212.5 484.781 3212.5 479.412V463.205C3211.17 464.066 3209.35 464.862 3207.03 465.591C3204.77 466.254 3202.22 466.884 3199.37 467.48C3196.52 468.01 3193.67 468.508 3190.82 468.972C3187.97 469.369 3185.39 469.734 3183.07 470.065C3178.09 470.795 3173.75 471.955 3170.04 473.545C3166.33 475.136 3163.44 477.291 3161.39 480.009C3159.33 482.66 3158.31 485.974 3158.31 489.952C3158.31 495.719 3160.39 500.127 3164.57 503.176C3168.81 506.159 3174.18 507.651 3180.68 507.651ZM3398.68 388.929C3397.89 380.908 3394.47 374.677 3388.44 370.236C3382.41 365.794 3374.22 363.574 3363.88 363.574C3356.86 363.574 3350.92 364.568 3346.08 366.557C3341.24 368.479 3337.53 371.164 3334.95 374.611C3332.43 378.058 3331.17 381.969 3331.17 386.344C3331.04 389.99 3331.8 393.171 3333.46 395.889C3335.18 398.607 3337.53 400.96 3340.52 402.949C3343.5 404.871 3346.95 406.562 3350.86 408.02C3354.77 409.412 3358.94 410.605 3363.38 411.599L3381.68 415.974C3390.56 417.963 3398.72 420.615 3406.14 423.929C3413.56 427.243 3419.99 431.32 3425.43 436.159C3430.87 440.998 3435.08 446.699 3438.06 453.261C3441.11 459.824 3442.67 467.348 3442.73 475.832C3442.67 488.295 3439.48 499.099 3433.19 508.247C3426.96 517.329 3417.94 524.388 3406.14 529.426C3394.41 534.398 3380.26 536.884 3363.68 536.884C3347.24 536.884 3332.93 534.365 3320.73 529.327C3308.6 524.289 3299.12 516.831 3292.29 506.955C3285.53 497.011 3281.98 484.715 3281.65 470.065H3323.31C3323.78 476.893 3325.73 482.594 3329.18 487.168C3332.69 491.675 3337.37 495.089 3343.2 497.409C3349.1 499.663 3355.76 500.79 3363.19 500.79C3370.48 500.79 3376.81 499.729 3382.18 497.608C3387.61 495.487 3391.82 492.537 3394.81 488.759C3397.79 484.98 3399.28 480.638 3399.28 475.733C3399.28 471.159 3397.92 467.314 3395.2 464.199C3392.55 461.083 3388.64 458.432 3383.47 456.244C3378.37 454.057 3372.1 452.068 3364.68 450.278L3342.5 444.71C3325.34 440.534 3311.78 434.005 3301.84 425.122C3291.89 416.24 3286.96 404.275 3287.02 389.227C3286.96 376.898 3290.24 366.126 3296.87 356.912C3303.56 347.698 3312.74 340.506 3324.41 335.335C3336.07 330.165 3349.33 327.58 3364.18 327.58C3379.29 327.58 3392.49 330.165 3403.75 335.335C3415.09 340.506 3423.91 347.698 3430.2 356.912C3436.5 366.126 3439.75 376.798 3439.95 388.929H3398.68Z" fill="black"/>
</svg>
