<svg width="1716" height="832" viewBox="0 0 1716 832" fill="none" xmlns="http://www.w3.org/2000/svg">
<path d="M351.349 213.667L490.885 409.447L155.569 353.203L351.349 213.667Z" fill="white"/>
<path fill-rule="evenodd" clip-rule="evenodd" d="M463.404 573.288L323.868 377.508L128.088 517.044L235.72 535.097L285.346 607.17L355.771 555.234L463.404 573.288Z" fill="white"/>
<path fill-rule="evenodd" clip-rule="evenodd" d="M339.479 284.436L478.193 485.112L364.24 465.998L347.182 522.229L314.088 516.678L310.924 457.055L310.122 456.92L287.601 512.235L254.585 506.697L256.825 447.981L142.878 428.868L339.479 284.436Z" fill="#F4431C"/>
<path d="M708.682 370.5C709.288 361.939 707.015 355.311 701.864 350.614C696.788 345.917 688.758 343.568 677.773 343.568C670.5 343.568 664.288 344.515 659.137 346.409C653.985 348.227 649.932 350.803 646.978 354.136C644.023 357.394 642.167 361.182 641.409 365.5C640.728 368.909 640.917 371.939 641.978 374.591C643.038 377.242 644.894 379.591 647.546 381.636C650.273 383.682 653.644 385.462 657.659 386.977C661.75 388.492 666.334 389.818 671.409 390.954L690.5 395.5C701.561 398 711.144 401.333 719.25 405.5C727.432 409.591 734.061 414.553 739.137 420.386C744.212 426.144 747.697 432.773 749.591 440.273C751.485 447.773 751.637 456.182 750.046 465.5C747.621 480.197 741.826 492.811 732.659 503.341C723.568 513.871 711.674 521.939 696.978 527.545C682.356 533.151 665.349 535.954 645.955 535.954C626.561 535.954 610.084 533.038 596.523 527.204C583.038 521.295 573.265 512.394 567.205 500.5C561.144 488.606 559.515 473.606 562.318 455.5H616.068C615.235 463 616.182 469.25 618.909 474.25C621.712 479.25 626.031 483.038 631.864 485.614C637.697 488.189 644.743 489.477 653 489.477C660.576 489.477 667.205 488.454 672.887 486.409C678.644 484.364 683.228 481.523 686.637 477.886C690.121 474.25 692.243 470.083 693 465.386C693.758 461.068 693.038 457.318 690.841 454.136C688.72 450.954 685.084 448.189 679.932 445.841C674.856 443.492 668.19 441.371 659.932 439.477L636.637 433.795C617.394 429.098 602.811 421.598 592.887 411.295C583.038 400.992 579.553 387.015 582.432 369.364C584.856 354.894 590.841 342.242 600.387 331.409C610.008 320.576 622.167 312.167 636.864 306.182C651.637 300.121 667.887 297.091 685.614 297.091C703.644 297.091 718.796 300.159 731.068 306.295C743.417 312.356 752.318 320.917 757.773 331.977C763.303 342.962 764.894 355.803 762.546 370.5H708.682Z" fill="white"/>
<path d="M914.364 300.273H970.5L945.614 450.386C942.735 467.735 936.106 482.848 925.727 495.727C915.424 508.53 902.28 518.454 886.295 525.5C870.311 532.47 852.508 535.954 832.886 535.954C813.189 535.954 796.561 532.47 783 525.5C769.439 518.454 759.629 508.53 753.568 495.727C747.508 482.848 745.879 467.735 748.682 450.386L773.568 300.273H829.818L805.614 445.5C804.326 453.53 804.932 460.689 807.432 466.977C810.008 473.189 814.174 478.114 819.932 481.75C825.689 485.311 832.735 487.091 841.068 487.091C849.477 487.091 857.167 485.311 864.136 481.75C871.106 478.114 876.864 473.189 881.409 466.977C885.955 460.689 888.871 453.53 890.159 445.5L914.364 300.273Z" fill="white"/>
<path d="M930.795 533L969.432 300.273H1065.57C1082.99 300.273 1097.54 303.417 1109.2 309.704C1120.87 315.917 1129.17 324.856 1134.09 336.523C1139.02 348.114 1140.15 361.864 1137.5 377.773C1134.92 393.833 1129.17 407.507 1120.23 418.795C1111.36 430.007 1099.92 438.568 1085.91 444.477C1071.97 450.386 1056.14 453.341 1038.41 453.341H977.614L985.114 409.023H1035.45C1043.86 409.023 1051.14 407.924 1057.27 405.727C1063.41 403.454 1068.3 400.045 1071.93 395.5C1075.64 390.879 1078.11 384.97 1079.32 377.773C1080.45 370.576 1079.92 364.629 1077.73 359.932C1075.61 355.159 1071.86 351.598 1066.48 349.25C1061.17 346.826 1054.36 345.614 1046.02 345.614H1018.3L987.045 533H930.795ZM1079.43 426.636L1119.77 533H1058.41L1019.32 426.636H1079.43Z" fill="white"/>
<path d="M1282.43 376.295C1281.98 371.523 1280.92 367.318 1279.25 363.682C1277.58 359.97 1275.31 356.826 1272.43 354.25C1269.55 351.674 1265.99 349.742 1261.75 348.454C1257.51 347.091 1252.58 346.409 1246.98 346.409C1235.77 346.409 1225.39 349.136 1215.84 354.591C1206.3 360.045 1198.23 368 1191.64 378.454C1185.05 388.833 1180.54 401.447 1178.11 416.295C1175.69 431.22 1175.61 443.947 1177.89 454.477C1180.23 465.007 1184.93 473.038 1191.98 478.568C1199.02 484.098 1208.34 486.864 1219.93 486.864C1230.31 486.864 1239.48 485.197 1247.43 481.864C1255.39 478.454 1261.83 473.644 1266.75 467.432C1271.75 461.22 1274.89 453.909 1276.18 445.5L1286.52 446.75H1229.93L1236.75 405.727H1336.98L1331.86 436.523C1328.45 457.356 1321.11 475.197 1309.82 490.045C1298.61 504.894 1284.59 516.295 1267.77 524.25C1251.03 532.204 1232.66 536.182 1212.66 536.182C1190.54 536.182 1171.86 531.371 1156.64 521.75C1141.41 512.129 1130.58 498.417 1124.14 480.614C1117.7 462.735 1116.48 441.523 1120.5 416.977C1123.68 397.886 1129.33 380.954 1137.43 366.182C1145.61 351.333 1155.61 338.757 1167.43 328.454C1179.33 318.151 1192.47 310.348 1206.86 305.045C1221.26 299.742 1236.22 297.091 1251.75 297.091C1265.16 297.091 1277.36 299.023 1288.34 302.886C1299.33 306.75 1308.72 312.204 1316.52 319.25C1324.33 326.295 1330.2 334.667 1334.14 344.364C1338.15 354.061 1339.89 364.704 1339.36 376.295H1282.43Z" fill="white"/>
<path d="M1312 533L1350.64 300.273H1512.91L1505.18 345.954H1399.16L1391.43 393.682H1489.16L1481.43 439.477H1383.7L1375.98 487.318H1482L1474.27 533H1312Z" fill="white"/>
</svg>
