<svg width="3653" height="832" viewBox="0 0 3653 832" fill="none" xmlns="http://www.w3.org/2000/svg">
<path d="M351.349 213.667L490.885 409.447L155.57 353.203L351.349 213.667Z" fill="white"/>
<path fill-rule="evenodd" clip-rule="evenodd" d="M463.404 573.288L323.868 377.508L128.088 517.044L235.72 535.097L285.345 607.17L355.771 555.234L463.404 573.288Z" fill="white"/>
<path fill-rule="evenodd" clip-rule="evenodd" d="M339.479 284.436L478.194 485.112L364.24 465.998L347.182 522.229L314.089 516.678L310.924 457.055L310.122 456.92L287.602 512.235L254.585 506.697L256.825 447.981L142.878 428.868L339.479 284.436Z" fill="#F4431C"/>
<path d="M708.682 370.5C709.288 361.939 707.015 355.311 701.864 350.614C696.788 345.917 688.758 343.568 677.773 343.568C670.5 343.568 664.288 344.515 659.137 346.409C653.985 348.227 649.932 350.803 646.978 354.136C644.023 357.394 642.167 361.182 641.409 365.5C640.728 368.909 640.917 371.939 641.978 374.591C643.038 377.242 644.894 379.591 647.546 381.636C650.273 383.682 653.644 385.462 657.659 386.977C661.75 388.492 666.334 389.818 671.409 390.954L690.5 395.5C701.561 398 711.144 401.333 719.25 405.5C727.432 409.591 734.061 414.553 739.137 420.386C744.212 426.144 747.697 432.773 749.591 440.273C751.485 447.773 751.637 456.182 750.046 465.5C747.621 480.197 741.826 492.811 732.659 503.341C723.568 513.871 711.674 521.939 696.978 527.545C682.356 533.151 665.349 535.954 645.955 535.954C626.561 535.954 610.084 533.038 596.523 527.204C583.038 521.295 573.265 512.394 567.205 500.5C561.144 488.606 559.515 473.606 562.318 455.5H616.068C615.235 463 616.182 469.25 618.909 474.25C621.712 479.25 626.031 483.038 631.864 485.614C637.697 488.189 644.743 489.477 653 489.477C660.576 489.477 667.205 488.454 672.887 486.409C678.644 484.364 683.228 481.523 686.637 477.886C690.121 474.25 692.243 470.083 693 465.386C693.758 461.068 693.038 457.318 690.841 454.136C688.72 450.954 685.084 448.189 679.932 445.841C674.856 443.492 668.19 441.371 659.932 439.477L636.637 433.795C617.394 429.098 602.811 421.598 592.887 411.295C583.038 400.992 579.553 387.015 582.432 369.364C584.856 354.894 590.841 342.242 600.387 331.409C610.008 320.576 622.167 312.167 636.864 306.182C651.637 300.121 667.887 297.091 685.614 297.091C703.644 297.091 718.796 300.159 731.068 306.295C743.417 312.356 752.318 320.917 757.773 331.977C763.303 342.962 764.894 355.803 762.546 370.5H708.682Z" fill="white"/>
<path d="M914.364 300.273H970.5L945.614 450.386C942.735 467.735 936.106 482.848 925.727 495.727C915.424 508.53 902.28 518.454 886.295 525.5C870.311 532.47 852.508 535.954 832.886 535.954C813.189 535.954 796.561 532.47 783 525.5C769.439 518.454 759.629 508.53 753.568 495.727C747.508 482.848 745.879 467.735 748.682 450.386L773.568 300.273H829.818L805.614 445.5C804.326 453.53 804.932 460.689 807.432 466.977C810.008 473.189 814.174 478.114 819.932 481.75C825.689 485.311 832.735 487.091 841.068 487.091C849.477 487.091 857.167 485.311 864.136 481.75C871.106 478.114 876.864 473.189 881.409 466.977C885.955 460.689 888.871 453.53 890.159 445.5L914.364 300.273Z" fill="white"/>
<path d="M930.795 533L969.432 300.273H1065.57C1082.99 300.273 1097.54 303.417 1109.2 309.704C1120.87 315.917 1129.17 324.856 1134.09 336.523C1139.02 348.114 1140.15 361.864 1137.5 377.773C1134.92 393.833 1129.17 407.507 1120.23 418.795C1111.36 430.007 1099.92 438.568 1085.91 444.477C1071.97 450.386 1056.14 453.341 1038.41 453.341H977.614L985.114 409.023H1035.45C1043.86 409.023 1051.14 407.924 1057.27 405.727C1063.41 403.454 1068.3 400.045 1071.93 395.5C1075.64 390.879 1078.11 384.97 1079.32 377.773C1080.45 370.576 1079.92 364.629 1077.73 359.932C1075.61 355.159 1071.86 351.598 1066.48 349.25C1061.17 346.826 1054.36 345.614 1046.02 345.614H1018.3L987.045 533H930.795ZM1079.43 426.636L1119.77 533H1058.41L1019.32 426.636H1079.43Z" fill="white"/>
<path d="M1282.43 376.295C1281.98 371.523 1280.92 367.318 1279.25 363.682C1277.58 359.97 1275.31 356.826 1272.43 354.25C1269.55 351.674 1265.99 349.742 1261.75 348.454C1257.51 347.091 1252.58 346.409 1246.98 346.409C1235.77 346.409 1225.39 349.136 1215.84 354.591C1206.3 360.045 1198.23 368 1191.64 378.454C1185.05 388.833 1180.54 401.447 1178.11 416.295C1175.69 431.22 1175.61 443.947 1177.89 454.477C1180.23 465.007 1184.93 473.038 1191.98 478.568C1199.02 484.098 1208.34 486.864 1219.93 486.864C1230.31 486.864 1239.48 485.197 1247.43 481.864C1255.39 478.454 1261.83 473.644 1266.75 467.432C1271.75 461.22 1274.89 453.909 1276.18 445.5L1286.52 446.75H1229.93L1236.75 405.727H1336.98L1331.86 436.523C1328.45 457.356 1321.11 475.197 1309.82 490.045C1298.61 504.894 1284.59 516.295 1267.77 524.25C1251.03 532.204 1232.66 536.182 1212.66 536.182C1190.54 536.182 1171.86 531.371 1156.64 521.75C1141.41 512.129 1130.58 498.417 1124.14 480.614C1117.7 462.735 1116.48 441.523 1120.5 416.977C1123.68 397.886 1129.33 380.954 1137.43 366.182C1145.61 351.333 1155.61 338.757 1167.43 328.454C1179.33 318.151 1192.47 310.348 1206.86 305.045C1221.26 299.742 1236.22 297.091 1251.75 297.091C1265.16 297.091 1277.36 299.023 1288.34 302.886C1299.33 306.75 1308.72 312.204 1316.52 319.25C1324.33 326.295 1330.2 334.667 1334.14 344.364C1338.15 354.061 1339.89 364.704 1339.36 376.295H1282.43Z" fill="white"/>
<path d="M1312 533L1350.64 300.273H1512.91L1505.18 345.954H1399.16L1391.43 393.682H1489.16L1481.43 439.477H1383.7L1375.98 487.318H1482L1474.27 533H1312Z" fill="white"/>
<path d="M1610 408H1652V450H1610V408Z" fill="white"/>
<path d="M3398.68 388.93C3397.89 380.909 3394.47 374.678 3388.44 370.236C3382.41 365.795 3374.22 363.574 3363.88 363.574C3356.86 363.574 3350.92 364.569 3346.08 366.557C3341.24 368.48 3337.53 371.164 3334.95 374.611C3332.43 378.058 3331.17 381.969 3331.17 386.344C3331.04 389.99 3331.8 393.172 3333.46 395.89C3335.18 398.608 3337.53 400.961 3340.52 402.949C3343.5 404.872 3346.95 406.562 3350.86 408.02C3354.77 409.412 3358.94 410.606 3363.38 411.6L3381.68 415.975C3390.56 417.964 3398.72 420.615 3406.14 423.93C3413.56 427.244 3419.99 431.321 3425.43 436.16C3430.87 440.999 3435.08 446.699 3438.06 453.262C3441.11 459.824 3442.67 467.348 3442.73 475.833C3442.67 488.295 3439.48 499.1 3433.19 508.248C3426.95 517.329 3417.94 524.389 3406.14 529.427C3394.41 534.398 3380.26 536.884 3363.68 536.884C3347.24 536.884 3332.93 534.365 3320.73 529.327C3308.6 524.289 3299.12 516.832 3292.29 506.955C3285.53 497.012 3281.98 484.716 3281.65 470.066H3323.31C3323.78 476.894 3325.73 482.594 3329.18 487.168C3332.69 491.676 3337.37 495.09 3343.2 497.41C3349.1 499.663 3355.76 500.79 3363.19 500.79C3370.48 500.79 3376.81 499.73 3382.18 497.608C3387.61 495.487 3391.82 492.537 3394.81 488.759C3397.79 484.981 3399.28 480.639 3399.28 475.733C3399.28 471.16 3397.92 467.315 3395.2 464.199C3392.55 461.084 3388.64 458.432 3383.47 456.245C3378.37 454.057 3372.1 452.069 3364.68 450.279L3342.5 444.711C3325.34 440.535 3311.78 434.005 3301.84 425.123C3291.89 416.24 3286.95 404.275 3287.02 389.228C3286.95 376.898 3290.24 366.126 3296.86 356.912C3303.56 347.698 3312.74 340.506 3324.41 335.336C3336.07 330.165 3349.33 327.58 3364.18 327.58C3379.29 327.58 3392.49 330.165 3403.75 335.336C3415.09 340.506 3423.91 347.698 3430.2 356.912C3436.5 366.126 3439.75 376.799 3439.95 388.93H3398.68Z" fill="white"/>
<path d="M3168.55 536.884C3158.8 536.884 3150.12 535.193 3142.5 531.813C3134.87 528.366 3128.84 523.295 3124.4 516.6C3120.03 509.838 3117.84 501.42 3117.84 491.344C3117.84 482.859 3119.4 475.733 3122.51 469.966C3125.63 464.199 3129.87 459.559 3135.24 456.046C3140.61 452.532 3146.71 449.881 3153.53 448.091C3160.43 446.301 3167.65 445.042 3175.21 444.313C3184.09 443.385 3191.25 442.523 3196.69 441.727C3202.12 440.866 3206.07 439.606 3208.52 437.949C3210.97 436.292 3212.2 433.839 3212.2 430.591V429.994C3212.2 423.697 3210.21 418.825 3206.23 415.378C3202.32 411.931 3196.75 410.207 3189.53 410.207C3181.91 410.207 3175.84 411.898 3171.33 415.278C3166.82 418.593 3163.84 422.769 3162.38 427.807L3123.21 424.625C3125.2 415.345 3129.11 407.324 3134.94 400.563C3140.77 393.735 3148.3 388.498 3157.51 384.852C3166.79 381.14 3177.53 379.284 3189.73 379.284C3198.21 379.284 3206.33 380.278 3214.09 382.267C3221.91 384.256 3228.84 387.338 3234.87 391.514C3240.97 395.69 3245.77 401.06 3249.29 407.622C3252.8 414.118 3254.56 421.907 3254.56 430.989V534H3214.39V512.821H3213.19C3210.74 517.594 3207.46 521.803 3203.35 525.449C3199.24 529.028 3194.3 531.846 3188.53 533.901C3182.77 535.889 3176.11 536.884 3168.55 536.884ZM3180.68 507.651C3186.91 507.651 3192.41 506.424 3197.18 503.972C3201.96 501.453 3205.7 498.072 3208.42 493.83C3211.14 489.587 3212.5 484.781 3212.5 479.412V463.205C3211.17 464.066 3209.35 464.862 3207.03 465.591C3204.77 466.254 3202.22 466.884 3199.37 467.48C3196.52 468.011 3193.67 468.508 3190.82 468.972C3187.97 469.369 3185.39 469.734 3183.07 470.065C3178.09 470.795 3173.75 471.955 3170.04 473.546C3166.33 475.136 3163.44 477.291 3161.39 480.009C3159.33 482.66 3158.31 485.975 3158.31 489.952C3158.31 495.719 3160.39 500.127 3164.57 503.176C3168.81 506.159 3174.18 507.651 3180.68 507.651Z" fill="white"/>
<path d="M3006.13 536.884C2996.38 536.884 2987.7 535.193 2980.08 531.813C2972.45 528.366 2966.42 523.295 2961.98 516.6C2957.6 509.838 2955.42 501.42 2955.42 491.344C2955.42 482.859 2956.97 475.733 2960.09 469.966C2963.2 464.199 2967.45 459.559 2972.82 456.046C2978.19 452.532 2984.28 449.881 2991.11 448.091C2998.01 446.301 3005.23 445.042 3012.79 444.313C3021.67 443.385 3028.83 442.523 3034.27 441.727C3039.7 440.866 3043.65 439.606 3046.1 437.949C3048.55 436.292 3049.78 433.839 3049.78 430.591V429.994C3049.78 423.697 3047.79 418.825 3043.81 415.378C3039.9 411.931 3034.33 410.207 3027.11 410.207C3019.48 410.207 3013.42 411.898 3008.91 415.278C3004.4 418.593 3001.42 422.769 2999.96 427.807L2960.79 424.625C2962.77 415.345 2966.68 407.324 2972.52 400.563C2978.35 393.735 2985.88 388.498 2995.09 384.852C3004.37 381.14 3015.11 379.284 3027.31 379.284C3035.79 379.284 3043.91 380.278 3051.67 382.267C3059.49 384.256 3066.42 387.338 3072.45 391.514C3078.55 395.69 3083.35 401.06 3086.86 407.622C3090.38 414.118 3092.13 421.907 3092.13 430.989V534H3051.96V512.821H3050.77C3048.32 517.594 3045.04 521.803 3040.93 525.449C3036.82 529.028 3031.88 531.846 3026.11 533.901C3020.35 535.889 3013.68 536.884 3006.13 536.884ZM3018.26 507.651C3024.49 507.651 3029.99 506.424 3034.76 503.972C3039.54 501.453 3043.28 498.072 3046 493.83C3048.72 489.587 3050.08 484.781 3050.08 479.412V463.205C3048.75 464.066 3046.93 464.862 3044.61 465.591C3042.35 466.254 3039.8 466.884 3036.95 467.48C3034.1 468.011 3031.25 468.508 3028.4 468.972C3025.55 469.369 3022.96 469.734 3020.64 470.065C3015.67 470.795 3011.33 471.955 3007.62 473.546C3003.91 475.136 3001.02 477.291 2998.97 480.009C2996.91 482.66 2995.88 485.975 2995.88 489.952C2995.88 495.719 2997.97 500.127 3002.15 503.176C3006.39 506.159 3011.76 507.651 3018.26 507.651Z" fill="white"/>
<path d="M2779.62 534.001V330.364H2859.96C2875.34 330.364 2888.47 333.115 2899.34 338.617C2910.27 344.053 2918.59 351.775 2924.29 361.785C2930.06 371.728 2932.94 383.428 2932.94 396.884C2932.94 410.407 2930.03 422.04 2924.19 431.785C2918.36 441.463 2909.91 448.887 2898.84 454.057C2887.84 459.228 2874.51 461.813 2858.87 461.813H2805.08V427.211H2851.91C2860.13 427.211 2866.95 426.084 2872.39 423.83C2877.83 421.576 2881.87 418.196 2884.52 413.688C2887.24 409.181 2888.6 403.579 2888.6 396.884C2888.6 390.123 2887.24 384.422 2884.52 379.782C2881.87 375.142 2877.79 371.628 2872.29 369.242C2866.86 366.789 2859.99 365.563 2851.71 365.563H2822.67V534.001H2779.62ZM2889.59 441.33L2940.2 534.001H2892.67L2843.16 441.33H2889.59Z" fill="white"/>
<path d="M2582.2 445.705V534H2539.84V381.273H2580.21V408.219H2582C2585.38 399.336 2591.05 392.31 2599 387.139C2606.96 381.903 2616.6 379.284 2627.94 379.284C2638.54 379.284 2647.79 381.604 2655.68 386.244C2663.57 390.885 2669.7 397.513 2674.07 406.131C2678.45 414.682 2680.64 424.89 2680.64 436.756V534H2638.28V444.313C2638.34 434.966 2635.96 427.674 2631.12 422.438C2626.28 417.135 2619.62 414.483 2611.13 414.483C2605.43 414.483 2600.39 415.709 2596.02 418.162C2591.71 420.615 2588.33 424.194 2585.88 428.901C2583.49 433.541 2582.27 439.142 2582.2 445.705Z" fill="white"/>
<path d="M2463.55 534V381.273H2505.91V534H2463.55ZM2484.83 361.586C2478.53 361.586 2473.13 359.498 2468.62 355.321C2464.18 351.079 2461.96 346.008 2461.96 340.108C2461.96 334.275 2464.18 329.27 2468.62 325.094C2473.13 320.852 2478.53 318.73 2484.83 318.73C2491.13 318.73 2496.5 320.852 2500.94 325.094C2505.45 329.27 2507.7 334.275 2507.7 340.108C2507.7 346.008 2505.45 351.079 2500.94 355.321C2496.5 359.498 2491.13 361.586 2484.83 361.586Z" fill="white"/>
<path d="M2360.84 536.983C2345.39 536.983 2332.04 533.702 2320.77 527.139C2309.57 520.51 2300.91 511.296 2294.82 499.497C2288.72 487.632 2285.67 473.877 2285.67 458.233C2285.67 442.457 2288.72 428.669 2294.82 416.869C2300.91 405.004 2309.57 395.79 2320.77 389.227C2332.04 382.599 2345.39 379.284 2360.84 379.284C2376.28 379.284 2389.61 382.599 2400.81 389.227C2412.08 395.79 2420.76 405.004 2426.86 416.869C2432.96 428.669 2436.01 442.457 2436.01 458.233C2436.01 473.877 2432.96 487.632 2426.86 499.497C2420.76 511.296 2412.08 520.51 2400.81 527.139C2389.61 533.702 2376.28 536.983 2360.84 536.983ZM2361.04 504.171C2368.06 504.171 2373.93 502.182 2378.64 498.205C2383.34 494.161 2386.89 488.659 2389.28 481.699C2391.73 474.739 2392.96 466.817 2392.96 457.935C2392.96 449.052 2391.73 441.131 2389.28 434.171C2386.89 427.21 2383.34 421.708 2378.64 417.665C2373.93 413.621 2368.06 411.6 2361.04 411.6C2353.94 411.6 2347.98 413.621 2343.14 417.665C2338.37 421.708 2334.75 427.21 2332.3 434.171C2329.92 441.131 2328.72 449.052 2328.72 457.935C2328.72 466.817 2329.92 474.739 2332.3 481.699C2334.75 488.659 2338.37 494.161 2343.14 498.205C2347.98 502.182 2353.94 504.171 2361.04 504.171Z" fill="white"/>
<path d="M2196.5 536.983C2180.86 536.983 2167.4 533.669 2156.13 527.04C2144.93 520.345 2136.31 511.064 2130.28 499.199C2124.32 487.333 2121.33 473.678 2121.33 458.233C2121.33 442.589 2124.35 428.868 2130.38 417.068C2136.48 405.203 2145.13 395.956 2156.33 389.327C2167.54 382.632 2180.86 379.284 2196.3 379.284C2209.63 379.284 2221.29 381.704 2231.3 386.543C2241.31 391.382 2249.23 398.176 2255.07 406.926C2260.9 415.676 2264.12 425.951 2264.71 437.75H2224.74C2223.61 430.127 2220.63 423.995 2215.79 419.355C2211.02 414.649 2204.76 412.296 2197 412.296C2190.44 412.296 2184.7 414.085 2179.8 417.665C2174.96 421.178 2171.18 426.315 2168.46 433.077C2165.75 439.838 2164.39 448.025 2164.39 457.636C2164.39 467.381 2165.71 475.667 2168.36 482.494C2171.08 489.322 2174.89 494.526 2179.8 498.105C2184.7 501.685 2190.44 503.475 2197 503.475C2201.84 503.475 2206.18 502.48 2210.03 500.492C2213.94 498.503 2217.15 495.619 2219.67 491.841C2222.26 487.996 2223.95 483.389 2224.74 478.02H2264.71C2264.05 489.687 2260.87 499.961 2255.17 508.844C2249.53 517.66 2241.74 524.554 2231.8 529.526C2221.86 534.497 2210.09 536.983 2196.5 536.983Z" fill="white"/>
<path d="M2101.55 381.274V413.092H2009.57V381.274H2101.55ZM2030.45 344.683H2072.81V487.069C2072.81 490.98 2073.41 494.029 2074.6 496.217C2075.79 498.338 2077.45 499.829 2079.57 500.691C2081.76 501.553 2084.28 501.984 2087.13 501.984C2089.12 501.984 2091.1 501.818 2093.09 501.487C2095.08 501.089 2096.61 500.791 2097.67 500.592L2104.33 532.112C2102.21 532.774 2099.23 533.537 2095.38 534.399C2091.54 535.327 2086.86 535.89 2081.36 536.089C2071.15 536.487 2062.2 535.128 2054.51 532.012C2046.89 528.897 2040.96 524.058 2036.72 517.495C2032.47 510.933 2030.39 502.647 2030.45 492.637V344.683Z" fill="white"/>
<path d="M1944.02 534V381.273H1986.38V534H1944.02ZM1965.3 361.586C1959 361.586 1953.6 359.498 1949.09 355.321C1944.65 351.079 1942.43 346.008 1942.43 340.108C1942.43 334.275 1944.65 329.27 1949.09 325.094C1953.6 320.852 1959 318.73 1965.3 318.73C1971.6 318.73 1976.97 320.852 1981.41 325.094C1985.91 329.27 1988.17 334.275 1988.17 340.108C1988.17 346.008 1985.91 351.079 1981.41 355.321C1976.97 359.498 1971.6 361.586 1965.3 361.586Z" fill="white"/>
<path d="M1759.7 534.001V330.364H1841.23C1856.21 330.364 1868.71 332.585 1878.72 337.026C1888.73 341.467 1896.25 347.632 1901.29 355.521C1906.33 363.342 1908.85 372.358 1908.85 382.566C1908.85 390.521 1907.26 397.514 1904.07 403.546C1900.89 409.512 1896.52 414.417 1890.95 418.262C1885.45 422.04 1879.15 424.725 1872.06 426.316V428.305C1879.81 428.636 1887.07 430.824 1893.83 434.867C1900.66 438.911 1906.19 444.578 1910.44 451.87C1914.68 459.095 1916.8 467.713 1916.8 477.722C1916.8 488.527 1914.12 498.172 1908.75 506.657C1903.44 515.075 1895.59 521.737 1885.18 526.643C1874.77 531.548 1861.95 534.001 1846.7 534.001H1759.7ZM1802.75 498.802H1837.85C1849.85 498.802 1858.6 496.515 1864.1 491.941C1869.6 487.301 1872.35 481.136 1872.35 473.447C1872.35 467.812 1871 462.841 1868.28 458.532C1865.56 454.223 1861.68 450.842 1856.64 448.39C1851.67 445.937 1845.74 444.711 1838.85 444.711H1802.75V498.802ZM1802.75 415.577H1834.67C1840.57 415.577 1845.81 414.55 1850.38 412.495C1855.02 410.374 1858.67 407.391 1861.32 403.546C1864.04 399.701 1865.39 395.094 1865.39 389.725C1865.39 382.367 1862.78 376.434 1857.54 371.927C1852.37 367.419 1845.01 365.165 1835.47 365.165H1802.75V415.577Z" fill="white"/>
</svg>
