<svg width="1716" height="832" viewBox="0 0 1716 832" fill="none" xmlns="http://www.w3.org/2000/svg">
<path d="M378.349 226.667L517.885 422.447L182.569 366.203L378.349 226.667Z" fill="#010101"/>
<path fill-rule="evenodd" clip-rule="evenodd" d="M490.404 586.288L350.868 390.508L155.088 530.044L262.72 548.097L312.346 620.17L382.771 568.234L490.404 586.288Z" fill="#010101"/>
<path fill-rule="evenodd" clip-rule="evenodd" d="M366.479 297.436L505.193 498.112L391.24 478.998L374.182 535.229L341.088 529.678L337.924 470.055L337.122 469.92L314.601 525.235L281.585 519.697L283.825 460.981L169.878 441.868L366.479 297.436Z" fill="#F4431C"/>
<path d="M735.682 383.5C736.288 374.939 734.015 368.311 728.864 363.614C723.788 358.917 715.758 356.568 704.773 356.568C697.5 356.568 691.288 357.515 686.137 359.409C680.985 361.227 676.932 363.803 673.978 367.136C671.023 370.394 669.167 374.182 668.409 378.5C667.728 381.909 667.917 384.939 668.978 387.591C670.038 390.242 671.894 392.591 674.546 394.636C677.273 396.682 680.644 398.462 684.659 399.977C688.75 401.492 693.334 402.818 698.409 403.954L717.5 408.5C728.561 411 738.144 414.333 746.25 418.5C754.432 422.591 761.061 427.553 766.137 433.386C771.212 439.144 774.697 445.773 776.591 453.273C778.485 460.773 778.637 469.182 777.046 478.5C774.621 493.197 768.826 505.811 759.659 516.341C750.568 526.871 738.674 534.939 723.978 540.545C709.356 546.151 692.349 548.954 672.955 548.954C653.561 548.954 637.084 546.038 623.523 540.204C610.038 534.295 600.265 525.394 594.205 513.5C588.144 501.606 586.515 486.606 589.318 468.5H643.068C642.235 476 643.182 482.25 645.909 487.25C648.712 492.25 653.031 496.038 658.864 498.614C664.697 501.189 671.743 502.477 680 502.477C687.576 502.477 694.205 501.454 699.887 499.409C705.644 497.364 710.228 494.523 713.637 490.886C717.121 487.25 719.243 483.083 720 478.386C720.758 474.068 720.038 470.318 717.841 467.136C715.72 463.954 712.084 461.189 706.932 458.841C701.856 456.492 695.19 454.371 686.932 452.477L663.637 446.795C644.394 442.098 629.811 434.598 619.887 424.295C610.038 413.992 606.553 400.015 609.432 382.364C611.856 367.894 617.841 355.242 627.387 344.409C637.008 333.576 649.167 325.167 663.864 319.182C678.637 313.121 694.887 310.091 712.614 310.091C730.644 310.091 745.796 313.159 758.068 319.295C770.417 325.356 779.318 333.917 784.773 344.977C790.303 355.962 791.894 368.803 789.546 383.5H735.682Z" fill="#010101"/>
<path d="M941.364 313.273H997.5L972.614 463.386C969.735 480.735 963.106 495.848 952.727 508.727C942.424 521.53 929.28 531.454 913.295 538.5C897.311 545.47 879.508 548.954 859.886 548.954C840.189 548.954 823.561 545.47 810 538.5C796.439 531.454 786.629 521.53 780.568 508.727C774.508 495.848 772.879 480.735 775.682 463.386L800.568 313.273H856.818L832.614 458.5C831.326 466.53 831.932 473.689 834.432 479.977C837.008 486.189 841.174 491.114 846.932 494.75C852.689 498.311 859.735 500.091 868.068 500.091C876.477 500.091 884.167 498.311 891.136 494.75C898.106 491.114 903.864 486.189 908.409 479.977C912.955 473.689 915.871 466.53 917.159 458.5L941.364 313.273Z" fill="#010101"/>
<path d="M957.795 546L996.432 313.273H1092.57C1109.99 313.273 1124.54 316.417 1136.2 322.704C1147.87 328.917 1156.17 337.856 1161.09 349.523C1166.02 361.114 1167.15 374.864 1164.5 390.773C1161.92 406.833 1156.17 420.507 1147.23 431.795C1138.36 443.007 1126.92 451.568 1112.91 457.477C1098.97 463.386 1083.14 466.341 1065.41 466.341H1004.61L1012.11 422.023H1062.45C1070.86 422.023 1078.14 420.924 1084.27 418.727C1090.41 416.454 1095.3 413.045 1098.93 408.5C1102.64 403.879 1105.11 397.97 1106.32 390.773C1107.45 383.576 1106.92 377.629 1104.73 372.932C1102.61 368.159 1098.86 364.598 1093.48 362.25C1088.17 359.826 1081.36 358.614 1073.02 358.614H1045.3L1014.05 546H957.795ZM1106.43 439.636L1146.77 546H1085.41L1046.32 439.636H1106.43Z" fill="#010101"/>
<path d="M1309.43 389.295C1308.98 384.523 1307.92 380.318 1306.25 376.682C1304.58 372.97 1302.31 369.826 1299.43 367.25C1296.55 364.674 1292.99 362.742 1288.75 361.454C1284.51 360.091 1279.58 359.409 1273.98 359.409C1262.77 359.409 1252.39 362.136 1242.84 367.591C1233.3 373.045 1225.23 381 1218.64 391.454C1212.05 401.833 1207.54 414.447 1205.11 429.295C1202.69 444.22 1202.61 456.947 1204.89 467.477C1207.23 478.007 1211.93 486.038 1218.98 491.568C1226.02 497.098 1235.34 499.864 1246.93 499.864C1257.31 499.864 1266.48 498.197 1274.43 494.864C1282.39 491.454 1288.83 486.644 1293.75 480.432C1298.75 474.22 1301.89 466.909 1303.18 458.5L1313.52 459.75H1256.93L1263.75 418.727H1363.98L1358.86 449.523C1355.45 470.356 1348.11 488.197 1336.82 503.045C1325.61 517.894 1311.59 529.295 1294.77 537.25C1278.03 545.204 1259.66 549.182 1239.66 549.182C1217.54 549.182 1198.86 544.371 1183.64 534.75C1168.41 525.129 1157.58 511.417 1151.14 493.614C1144.7 475.735 1143.48 454.523 1147.5 429.977C1150.68 410.886 1156.33 393.954 1164.43 379.182C1172.61 364.333 1182.61 351.757 1194.43 341.454C1206.33 331.151 1219.47 323.348 1233.86 318.045C1248.26 312.742 1263.22 310.091 1278.75 310.091C1292.16 310.091 1304.36 312.023 1315.34 315.886C1326.33 319.75 1335.72 325.204 1343.52 332.25C1351.33 339.295 1357.2 347.667 1361.14 357.364C1365.15 367.061 1366.89 377.704 1366.36 389.295H1309.43Z" fill="#010101"/>
<path d="M1339 546L1377.64 313.273H1539.91L1532.18 358.954H1426.16L1418.43 406.682H1516.16L1508.43 452.477H1410.7L1402.98 500.318H1509L1501.27 546H1339Z" fill="#010101"/>
</svg>
