<svg width="202" height="100" viewBox="0 0 202 100" fill="none" xmlns="http://www.w3.org/2000/svg">
<path d="M72.1215 19.0333C72.1798 18.2131 71.9611 17.578 71.4653 17.128C70.9767 16.678 70.2038 16.453 69.1465 16.453C68.4466 16.453 67.8486 16.5437 67.3528 16.7252C66.857 16.8994 66.4669 17.1462 66.1825 17.4655C65.8982 17.7776 65.7195 18.1406 65.6466 18.5543C65.581 18.8809 65.5992 19.1713 65.7013 19.4253C65.8034 19.6793 65.982 19.9043 66.2372 20.1003C66.4997 20.2963 66.8242 20.4669 67.2106 20.612C67.6044 20.7572 68.0455 20.8842 68.5341 20.9931L70.3715 21.4286C71.4361 21.6681 72.3585 21.9875 73.1387 22.3867C73.9262 22.7787 74.5642 23.2541 75.0527 23.813C75.5412 24.3646 75.8766 24.9997 76.0589 25.7183C76.2412 26.4369 76.2558 27.2425 76.1027 28.1353C75.8694 29.5434 75.3116 30.7519 74.4293 31.7609C73.5543 32.7698 72.4095 33.5428 70.995 34.0799C69.5877 34.617 67.9507 34.8856 66.0841 34.8856C64.2175 34.8856 62.6315 34.6061 61.3264 34.0472C60.0285 33.4811 59.0879 32.6282 58.5045 31.4887C57.9212 30.3491 57.7644 28.912 58.0342 27.1772H63.2076C63.1274 27.8958 63.2185 28.4946 63.481 28.9737C63.7508 29.4527 64.1664 29.8156 64.7279 30.0624C65.2893 30.3092 65.9674 30.4326 66.7622 30.4326C67.4914 30.4326 68.1294 30.3346 68.6762 30.1386C69.2304 29.9426 69.6715 29.6705 69.9997 29.3221C70.3351 28.9737 70.5392 28.5744 70.6121 28.1244C70.6851 27.7107 70.6158 27.3514 70.4043 27.0466C70.2002 26.7417 69.8502 26.4768 69.3544 26.2518C68.8658 26.0268 68.2242 25.8235 67.4294 25.6421L65.1872 25.0977C63.3352 24.6477 61.9316 23.9291 60.9764 22.942C60.0285 21.9548 59.6931 20.6157 59.9701 18.9245C60.2035 17.5381 60.7795 16.326 61.6982 15.288C62.6243 14.2501 63.7945 13.4444 65.2091 12.871C66.631 12.2903 68.195 12 69.9012 12C71.6366 12 73.0949 12.294 74.2761 12.8819C75.4647 13.4626 76.3214 14.2828 76.8464 15.3425C77.3787 16.3949 77.5318 17.6252 77.3058 19.0333H72.1215Z" fill="#010101"/>
<path d="M91.918 12.3049H97.3211L94.9258 26.6873C94.6487 28.3494 94.0107 29.7975 93.0118 31.0314C92.0201 32.2581 90.755 33.2089 89.2165 33.8839C87.678 34.5517 85.9645 34.8856 84.076 34.8856C82.1802 34.8856 80.5797 34.5517 79.2745 33.8839C77.9693 33.2089 77.025 32.2581 76.4417 31.0314C75.8584 29.7975 75.7016 28.3494 75.9714 26.6873L78.3667 12.3049H83.7807L81.451 26.2191C81.3271 26.9885 81.3854 27.6744 81.626 28.2769C81.8739 28.872 82.275 29.3438 82.8291 29.6922C83.3833 30.0334 84.0614 30.2039 84.8635 30.2039C85.6728 30.2039 86.4129 30.0334 87.0837 29.6922C87.7546 29.3438 88.3087 28.872 88.7462 28.2769C89.1837 27.6744 89.4644 26.9885 89.5884 26.2191L91.918 12.3049Z" fill="#010101"/>
<path d="M93.4996 34.6025L97.2183 12.3049H106.471C108.148 12.3049 109.548 12.6061 110.671 13.2085C111.794 13.8037 112.592 14.6602 113.066 15.778C113.54 16.8885 113.65 18.2059 113.395 19.7301C113.147 21.2689 112.592 22.579 111.732 23.6605C110.879 24.7348 109.778 25.555 108.429 26.1211C107.087 26.6873 105.563 26.9703 103.857 26.9703H98.0057L98.7276 22.7242H103.573C104.382 22.7242 105.082 22.619 105.673 22.4085C106.263 22.1907 106.734 21.8641 107.084 21.4286C107.441 20.9858 107.678 20.4197 107.795 19.7301C107.904 19.0406 107.853 18.4708 107.642 18.0208C107.437 17.5635 107.076 17.2224 106.559 16.9974C106.048 16.7651 105.392 16.649 104.59 16.649H101.921L98.9135 34.6025H93.4996ZM107.806 24.4118L111.688 34.6025H105.782L102.02 24.4118H107.806Z" fill="#010101"/>
<path d="M127.344 19.5886C127.3 19.1313 127.198 18.7285 127.038 18.3801C126.877 18.0244 126.659 17.7232 126.382 17.4764C126.104 17.2296 125.762 17.0446 125.353 16.9212C124.945 16.7905 124.471 16.7252 123.932 16.7252C122.852 16.7252 121.853 16.9865 120.935 17.5091C120.016 18.0317 119.239 18.7938 118.605 19.7955C117.971 20.7899 117.537 21.9984 117.304 23.421C117.07 24.8509 117.063 26.0703 117.282 27.0792C117.508 28.0881 117.96 28.8575 118.638 29.3874C119.316 29.9172 120.213 30.1822 121.328 30.1822C122.327 30.1822 123.21 30.0225 123.975 29.7031C124.741 29.3765 125.361 28.9156 125.835 28.3204C126.316 27.7252 126.619 27.0248 126.742 26.2191L127.738 26.3389H122.291L122.947 22.4085H132.594L132.102 25.359C131.774 27.355 131.066 29.0644 129.98 30.487C128.901 31.9097 127.552 33.002 125.933 33.7642C124.322 34.5263 122.553 34.9074 120.629 34.9074C118.499 34.9074 116.702 34.4464 115.236 33.5246C113.771 32.6028 112.728 31.2891 112.108 29.5834C111.489 27.8704 111.372 25.838 111.758 23.4863C112.065 21.6572 112.608 20.035 113.388 18.6196C114.175 17.197 115.138 15.9921 116.275 15.005C117.42 14.0178 118.685 13.2702 120.071 12.7621C121.456 12.254 122.896 12 124.391 12C125.682 12 126.855 12.1851 127.913 12.5553C128.97 12.9254 129.874 13.448 130.625 14.1231C131.376 14.7981 131.941 15.6001 132.32 16.5292C132.707 17.4583 132.875 18.4781 132.824 19.5886H127.344Z" fill="#010101"/>
<path d="M130.19 34.6025L133.909 12.3049H149.527L148.783 16.6816H138.579L137.835 21.2544H147.241L146.497 25.6421H137.091L136.348 30.2257H146.552L145.808 34.6025H130.19Z" fill="#010101"/>
<g clip-path="url(#clip0_940_339)">
<path d="M174.989 54.1111C174.886 54.1269 174.105 53.6005 172.646 52.5318C171.817 51.9253 171.39 51.5366 171.364 51.3658C171.348 51.2633 171.489 50.3669 171.788 48.6767C171.761 48.5059 171.304 48.4366 170.417 48.4687C170.315 48.4846 170.224 48.5162 170.144 48.5635C170.063 48.6109 169.972 48.6425 169.87 48.6583C169.374 48.7349 168.761 47.7103 168.03 45.5845C167.975 45.4531 167.866 45.3737 167.705 45.3462C167.54 45.3017 167.452 45.2367 167.439 45.1513C167.436 45.1342 167.452 45.123 167.486 45.1177C167.5 45.098 167.522 45.0684 167.551 45.029C167.58 44.9895 167.614 44.9317 167.655 44.8554C167.696 44.7792 167.708 44.6898 167.692 44.5873L167.639 44.4119C167.561 44.249 167.515 44.1163 167.499 44.0138C167.475 43.8601 167.514 43.7753 167.617 43.7595C167.737 43.741 167.87 43.7553 168.017 43.8025C168.162 43.8327 168.302 43.8372 168.439 43.816C168.524 43.8028 168.589 43.7667 168.632 43.7075C169.808 42.039 171.303 40.505 173.115 39.1054C173.961 38.4675 174.49 37.9309 174.703 37.4958L176.478 33.0238C178.918 26.63 180.339 23.3758 180.741 23.2612C181.681 22.7835 182.4 22.3401 182.896 21.9311C183.298 21.5891 183.61 21.401 183.832 21.3666C184.02 21.3376 184.14 21.4939 184.193 21.8355C184.278 22.3822 184.287 23.4039 184.221 24.9008C184.239 25.5802 183.625 27.494 182.38 30.6423C182.225 30.9986 182.08 31.362 181.945 31.7327C182.079 31.6945 183.131 30.9197 185.101 29.4084C191.891 24.1088 195.499 21.4261 195.926 21.3601C195.977 21.3521 196.014 21.3639 196.036 21.3955C196.44 22.3125 196.773 23.0482 197.033 23.6025C197.438 24.4144 197.666 24.9826 197.716 25.3072C197.748 25.5122 197.712 25.6751 197.608 25.7961C197.505 25.9171 197.342 26.0558 197.122 26.2124C196.918 26.3663 196.654 26.582 196.33 26.8595L186.609 34.2388C181.351 38.1298 178.505 40.4237 178.07 41.1205C177.375 42.9595 177.038 43.9473 177.059 44.0839C177.075 44.1864 177.214 44.235 177.475 44.2295C180.651 44.6307 182.756 44.9525 183.79 45.1949C184.572 45.3888 186.26 45.8975 188.853 46.721C189.609 46.9715 190.008 47.2334 190.05 47.5067C190.077 47.6775 190.015 47.8444 189.865 48.0075C189.733 48.1679 189.5 48.4138 189.166 48.7452C188.91 49.0122 188.674 49.2936 188.457 49.5894C187.693 50.7569 187.115 51.371 186.722 51.4318C186.517 51.4635 186.35 51.2356 186.222 50.7481C186.146 50.4801 186.035 50.2699 185.889 50.1176C185.757 49.9455 185.463 49.7985 185.007 49.6766C184.214 49.5195 181.258 49.1806 176.14 48.6598C175.871 48.8414 175.652 49.4611 175.483 50.5192C175.329 51.5575 175.25 52.2954 175.248 52.733C175.263 53.6227 175.177 54.082 174.989 54.1111Z" fill="#010101"/>
<path d="M162.82 55.4937C162.325 55.5703 161.849 55.5476 161.393 55.4257C160.846 55.2829 160.083 55.0422 159.104 54.7039C156.596 53.8672 155.141 52.1507 154.74 49.5542C154.431 47.5556 154.688 45.3121 155.51 42.8238C156.346 40.3159 157.477 37.9023 158.903 35.5831C160.346 33.2613 161.879 31.3014 163.504 29.7036C165.143 28.086 166.611 27.1769 167.909 26.9762C168.849 26.831 169.464 27.1296 169.753 27.8718C169.935 28.3685 170.089 29.0268 170.216 29.8467C170.316 30.4958 170.43 31.1167 170.556 31.7093L170.788 33.0377C170.901 33.7722 170.924 34.5384 170.854 35.3361C170.802 36.1312 170.501 36.9561 169.951 37.8107C169.937 37.8304 169.896 37.8455 169.827 37.8561C169.366 37.9274 168.308 37.6449 166.653 37.0087C165.634 36.6415 165.112 36.3725 165.085 36.2016C165.061 36.0479 165.149 35.8244 165.349 35.5312C165.647 35.0829 165.836 34.494 165.915 33.7646C164.847 34.9967 163.816 36.7039 162.824 38.8861C161.847 41.0485 161.05 43.1918 160.434 45.3159C159.832 47.4203 159.6 48.9167 159.737 49.8049C159.774 50.0441 159.844 50.2168 159.948 50.3232C160.49 50.8866 160.975 51.1353 161.402 51.0693C161.555 51.0455 161.691 50.9633 161.81 50.8226C164.377 47.8547 165.854 45.755 166.24 44.5233C166.297 44.3222 166.374 44.1441 166.473 43.989C166.609 43.7405 167.193 43.2742 168.224 42.5901C169.651 41.6351 170.485 41.095 170.728 40.97C170.814 40.9568 170.867 41.0185 170.888 41.1552L171.084 42.594C171.237 43.5848 171.388 44.2175 171.535 44.492C171.601 44.6917 171.644 44.8599 171.666 44.9965C171.708 45.2699 171.584 45.6563 171.294 46.1559C169.761 48.6841 168.422 50.6576 167.277 52.0764C165.587 54.1566 164.101 55.2957 162.82 55.4937Z" fill="#010101"/>
<path d="M146.28 45.0635C146.433 45.0397 146.532 44.832 146.577 44.4403C146.638 44.046 146.705 43.2923 146.778 42.1792C146.836 40.6311 147.023 38.0486 147.338 34.4319C147.331 34.3806 147.317 34.3478 147.297 34.3333C147.275 34.3018 147.262 34.2775 147.26 34.2604C145.137 37.6143 143.355 41.1953 141.915 45.0035L143.364 44.7008C144.32 44.553 145.11 44.6234 145.731 44.9121C145.96 45.0341 146.143 45.0846 146.28 45.0635ZM149.16 59.2838C148.989 59.3103 148.828 59.1165 148.676 58.7027C147.893 56.6899 147.302 54.6738 146.902 52.6542C146.832 52.0879 146.776 51.3881 146.735 50.555C146.695 50.0714 146.654 49.693 146.612 49.4196C146.503 49.5065 146.414 49.5551 146.346 49.5657C146.241 49.5645 146.135 49.5021 146.028 49.3787C145.744 49.1252 145.437 49.0065 145.108 49.0225C144.9 49.0371 144.659 49.0655 144.386 49.1078C143.481 49.2477 142.241 49.5443 140.667 49.9975C140.516 50.0383 140.414 50.1153 140.362 50.2283C140.307 50.3243 140.158 50.8895 139.915 51.9239C139.892 51.9975 139.884 52.0599 139.892 52.1112C139.913 52.2478 140.031 52.3345 140.247 52.3711C140.46 52.3907 140.573 52.4432 140.586 52.5286C140.61 52.6823 140.343 53.0472 139.785 53.6232C139.589 53.8283 139.328 54.1222 139.003 54.5049C137.976 55.783 137.292 56.4484 136.95 56.5012C136.847 56.5171 136.771 56.4764 136.721 56.3792C136.083 55.0786 135.693 54.0282 135.552 53.228C135.394 52.4304 135.194 52.0416 134.952 52.0614C134.71 52.0813 134.585 52.0656 134.577 52.0144L134.526 51.6813C134.481 51.1636 134.431 50.7253 134.375 50.3666C134.288 49.8029 134.157 49.2372 133.982 48.6696C133.916 48.4699 133.872 48.3018 133.851 48.1651C133.814 47.926 133.875 47.7505 134.032 47.6387L135.993 46.9158C139.911 36.3932 143.381 29.9889 146.403 27.7027C146.558 27.5738 146.721 27.4962 146.892 27.4698C147.165 27.4275 147.868 27.6163 149 28.036L150.889 28.7148C151.693 28.9402 152.166 29.5142 152.309 30.4366C152.449 31.342 152.368 32.7974 152.066 34.8031C151.337 39.708 151.1 45.7 151.355 52.7792L151.444 53.5262C151.526 54.0558 151.663 54.603 151.855 55.168C151.924 55.3848 151.971 55.5786 151.998 55.7494C152.04 56.0227 151.994 56.231 151.858 56.3744C150.944 57.2502 150.302 57.9617 149.932 58.5086C149.605 58.9964 149.348 59.2548 149.16 59.2838Z" fill="#010101"/>
<path d="M125.972 61.6876C125.904 61.6982 125.824 61.693 125.734 61.672C124.942 61.3046 123.809 60.9289 122.333 60.5449C122.245 60.541 122.186 60.4452 122.157 60.2573C122.041 59.5056 122.292 57.508 122.91 54.2642C123.528 51.0204 124.191 48.1281 124.9 45.5874C125.627 43.044 126.258 41.0749 126.795 39.6802C126.818 39.6066 126.838 39.5074 126.853 39.3825C126.412 39.4683 125 39.9489 122.616 40.8245L121.144 41.3144C120.99 41.3382 120.829 41.3107 120.659 41.232C120.357 41.0863 119.536 40.4699 118.196 39.3828C117.421 38.7854 117.029 38.4525 117.018 38.3842C117.002 38.2817 117.152 38.1712 117.466 38.0527C117.78 37.9342 118.241 37.6967 118.851 37.3401C120.611 36.281 124.493 34.8064 130.498 32.9163C133.464 31.968 135.657 31.3843 137.074 31.1651C137.946 31.0305 138.45 31.0663 138.586 31.2725C138.608 31.8638 138.624 32.7621 138.636 33.9671C138.63 35.8569 138.357 36.8611 137.816 36.9797C137.628 37.0088 137.413 36.9196 137.171 36.7121C137.028 36.5769 136.811 36.5317 136.52 36.5766C136.196 36.6267 135.74 36.7322 135.153 36.8929C135.004 36.9509 134.46 37.105 133.519 37.3553C132.595 37.6031 132.097 37.7762 132.025 37.8748C131.967 37.9537 131.949 38.0615 131.97 38.1982C131.969 38.5306 131.876 38.9473 131.691 39.4481C129.319 45.604 127.686 52.0655 126.79 58.8327C126.652 59.7462 126.533 60.4467 126.433 60.9343C126.331 61.4048 126.177 61.656 125.972 61.6876Z" fill="#010101"/>
<path d="M101.31 68.8051C101.054 68.8447 100.916 68.8047 100.898 68.6851C100.861 68.446 100.977 67.842 101.247 66.8733L101.823 64.3182C101.874 64.0829 101.975 63.8312 102.126 63.563C102.275 63.2777 102.443 63.1205 102.631 63.0915C102.699 63.0809 102.782 63.1118 102.881 63.184C102.96 63.2417 103.11 63.2535 103.332 63.2191C104.067 63.1056 105.247 62.4247 106.873 61.1764C108.516 59.9255 110.196 58.459 111.913 56.777C113.643 55.0753 115.102 53.4243 116.289 51.8241C116.347 51.7453 116.37 51.6716 116.36 51.6033C116.318 51.33 115.881 51.1614 115.049 51.0976C114.628 51.0927 113.419 51.2447 111.42 51.5536C108.977 51.9312 107.274 52.0546 106.309 51.9239C105.342 51.776 104.801 51.3349 104.688 50.6003C104.592 49.9854 104.778 48.811 105.245 47.0773L105.685 45.1728C106.048 43.7875 106.897 42.2046 108.231 40.4243C109.582 38.6414 111.027 37.0187 112.568 35.5562C114.519 33.698 115.871 32.7107 116.622 32.5946C116.827 32.5629 117.009 32.6048 117.167 32.7203C117.339 32.8161 117.535 32.952 117.754 33.128C118.069 33.4642 118.591 33.8469 119.322 34.2761C120.296 34.8076 120.799 35.1759 120.831 35.3809C120.847 35.4834 120.83 35.5997 120.78 35.7298C120.464 36.5133 119.937 37.1195 119.198 37.5484C118.458 37.9603 117.713 38.2939 116.966 38.5494C116.235 38.8022 115.716 39.0661 115.409 39.341C113.665 41.1846 112.3 42.8211 111.314 44.2503C110.345 45.6768 109.883 46.5353 109.928 46.8257C109.942 46.9111 109.991 46.9472 110.076 46.934C112.792 46.5142 114.537 46.2619 115.311 46.1773C116.085 46.0926 116.649 46.1192 117.003 46.2569C117.373 46.392 117.771 46.6453 118.196 47.0169C118.68 47.4319 119.531 48.0174 120.75 48.7735C121.37 49.1673 121.729 49.6802 121.827 50.3122C122.089 52.0034 120.638 54.5013 117.476 57.806C113.997 61.4395 110.774 64.1239 107.807 65.8594C104.723 67.6304 102.557 68.6123 101.31 68.8051Z" fill="#010101"/>
<path d="M93.8055 49.4494L95.4722 48.0112C97.0982 46.7629 98.6164 45.3826 100.027 43.8703C99.9873 43.8414 99.9419 43.831 99.8907 43.8389C97.5191 44.4503 96.1159 44.8771 95.681 45.1192C95.375 45.289 95.1806 45.5026 95.098 45.7603C94.1691 47.8977 93.7245 49.0946 93.7641 49.3508L93.8055 49.4494ZM88.1325 69.2682C87.9617 69.2946 87.5243 68.6713 86.8203 67.3984C86.1137 66.1084 85.7235 65.2243 85.6495 64.746C86.3121 61.3379 86.7089 59.3789 86.8399 58.8689C86.95 58.4496 86.9945 58.1716 86.9734 58.035C86.9405 57.9351 86.8366 57.8287 86.6617 57.7158C85.911 57.2722 85.5172 56.9308 85.4802 56.6916C85.4565 56.5379 85.5253 56.3611 85.6868 56.1612C86.4852 55.2158 87.0827 54.6687 87.4795 54.5199C87.6621 54.4567 87.7829 54.3331 87.8419 54.149C87.9154 53.9453 88.1042 53.3564 88.4084 52.3824C89.3564 49.35 89.934 47.5991 90.1413 47.1298C90.2083 46.9971 90.2351 46.888 90.2219 46.8026C90.2061 46.7001 89.4974 46.1887 88.0959 45.2685C87.9999 45.2133 87.7632 45.04 87.3858 44.7486C87.3293 44.7223 87.2945 44.6665 87.2813 44.5811C87.2205 44.1882 87.887 43.578 89.2808 42.7504C90.6889 41.9031 92.4138 41.068 94.4554 40.2452C97.0909 39.1907 99.3652 38.5156 101.278 38.2199C103.55 37.8687 104.821 38.1707 105.091 39.1259C105.218 39.7185 105.321 40.2711 105.4 40.7835C105.545 41.723 105.593 42.5989 105.544 43.4111C105.512 44.2206 105.182 45.0849 104.554 46.0039C103.924 46.9059 102.938 47.9415 101.598 49.1107C100.254 50.2629 98.3673 51.805 95.9375 53.7373C95.6906 53.9503 95.5343 54.0707 95.4686 54.0983C95.2794 54.2325 95.1041 54.3995 94.9426 54.5994L98.4432 54.1632C100.12 53.9216 101.53 53.7648 102.673 53.6931C103.816 53.6213 104.716 53.7271 105.372 54.0105C106.025 54.2768 106.429 54.9053 106.582 55.8961C106.708 56.716 106.661 57.8252 106.44 59.2236C106.422 59.3314 106.354 59.4557 106.235 59.5964C106.132 59.7173 105.994 59.791 105.824 59.8174C105.653 59.8438 105.438 59.7546 105.179 59.5498C104.999 59.4027 104.807 59.2925 104.603 59.219C104.156 59.0432 103.167 59.0387 101.636 59.2054C98.3051 59.4929 95.8773 59.6845 94.3529 59.7802C93.1387 59.8454 92.2583 59.9203 91.7117 60.0048C91.2504 60.0761 90.9805 60.1965 90.9017 60.3661C90.823 60.5357 90.5833 61.7009 90.1827 63.8616C90.1896 64.2453 90.0592 64.8164 89.7917 65.5749C89.1674 67.4204 88.6144 68.6515 88.1325 69.2682Z" fill="#010101"/>
<path d="M76.7541 68.639C76.3783 68.6971 75.8145 68.6705 75.0627 68.5593C74.3109 68.4482 73.519 68.247 72.6869 67.9559C71.8693 67.645 71.1463 67.267 70.5178 66.822C69.9038 66.3572 69.5367 65.793 69.4166 65.1295C69.2197 63.5158 69.5469 61.5588 70.3981 59.2584L70.4473 59.0672L70.3979 58.9174L69.8085 59.0085C68.9032 59.1484 68.4347 59.1159 68.403 58.9109C68.3766 58.7401 68.5196 58.4207 68.832 57.9526C68.9765 57.7554 69.2127 57.3603 69.5408 56.7674C70.1576 55.5527 70.5934 54.8644 70.8483 54.7026L72.0227 54.1538C72.3315 54.0011 73.1208 52.3749 74.3907 49.2753C74.4629 49.1767 74.5797 48.9137 74.741 48.4865L74.7331 48.4353C74.2851 48.592 74.0795 48.7899 74.1165 49.0291C74.1323 49.1316 74.0805 49.192 73.9609 49.2105C73.614 49.2292 72.7084 49.0281 71.2441 48.6073C69.6156 48.1419 68.7637 47.7226 68.6885 47.3495C68.6727 47.247 68.7278 47.151 68.8539 47.0615C71.037 45.5698 73.5783 44.3024 76.4779 43.2596C79.7427 42.0903 82.6136 41.3142 85.0905 40.9314C88.1995 40.4508 89.8357 40.6264 89.9993 41.4582C90.0258 41.8563 90.0682 42.2433 90.1263 42.6191C90.2331 43.1973 90.3563 43.7117 90.496 44.1623C90.6329 44.5959 90.7318 45.0091 90.7925 45.402C90.8902 46.0341 90.7085 46.3857 90.2472 46.457C89.6494 46.5494 88.3816 46.2119 86.444 45.4445C86.331 45.392 86.1463 45.3856 85.8901 45.4252C85.5143 45.4833 85.0656 45.5789 84.5439 45.712C83.8541 45.8886 82.8996 46.1061 81.6802 46.3645C80.8143 46.5333 80.4038 46.763 80.4487 47.0534C80.4645 47.1558 80.5126 47.2971 80.5929 47.4771C80.6876 47.6373 80.764 47.9054 80.8221 48.2812C80.8643 48.5545 80.8475 48.8981 80.7716 49.3122C80.714 49.6184 80.6523 49.7853 80.5866 49.813C80.5354 49.8209 80.4631 49.8058 80.3698 49.7678C80.2935 49.7271 80.1844 49.7002 80.0425 49.6872C79.9571 49.7004 79.8022 49.943 79.5778 50.4149C79.3914 50.7935 79.2675 51.0663 79.2058 51.2332C79.2111 51.2674 79.3077 51.27 79.4956 51.2409C79.9147 51.1237 80.2353 51.0479 80.4574 51.0135C80.8332 50.9555 81.1237 51.0242 81.3288 51.2199C81.5484 51.3959 81.7654 51.6684 81.9799 52.0375C82.393 52.6733 82.948 53.3221 83.645 53.9839C83.9738 54.3004 84.1513 54.544 84.1777 54.7149C84.2041 54.8857 83.9283 55.0245 83.3501 55.1314L82.8849 55.177C81.8456 55.3552 80.8161 55.5406 79.7964 55.7331C78.7912 55.906 77.9964 56.195 77.4118 56.6002C76.8418 56.9856 76.3383 57.7456 75.9015 58.88C75.4792 59.9947 75.023 61.6831 74.5331 63.9451L74.5233 64.0515C74.5971 64.3025 74.8475 64.3949 75.2746 64.3289C75.5821 64.2814 75.8218 64.1919 75.9939 64.0603C78.308 62.0586 79.8696 60.7328 80.6787 60.083C81.2553 59.6266 81.6802 59.3773 81.9535 59.335C82.2098 59.2954 82.386 59.5305 82.4823 60.0404C82.6909 61.3898 82.8913 62.3471 83.0836 62.912L83.1647 63.2668C83.1884 63.4205 83.1596 63.5736 83.0783 63.7261C82.9011 64.0509 81.8182 65.0228 79.8298 66.6419C78.5124 67.7375 77.4872 68.4032 76.7541 68.639Z" fill="#010101"/>
<path d="M56.0512 58.0924C56.2732 58.0581 57.089 57.5647 58.4984 56.6122C59.9249 55.6571 61.4346 54.3919 63.0276 52.8164C64.6205 51.2409 65.8789 49.481 66.8027 47.5367L66.8341 47.4007C66.7892 47.1103 65.9981 47.0839 64.4607 47.3215C62.8891 47.5645 61.6041 47.8505 60.6056 48.1798L58.8043 48.7468C58.5901 48.8324 58.4674 49 58.436 49.2497L58.3319 49.7643C58.3345 49.7814 58.3273 49.7912 58.3102 49.7939C58.2919 49.9016 58.1864 50.294 57.9937 50.9709C56.7168 55.3834 56.0693 57.7573 56.0512 58.0924ZM51.7073 75.8168L51.6521 75.7991C50.9632 75.4159 50.3571 75.116 49.8339 74.8995C49.2345 74.6424 48.7573 74.3838 48.4023 74.1239C48.0276 73.8495 47.7927 73.4048 47.6976 72.7899C47.5392 71.7649 47.7843 69.8993 48.4329 67.193C49.0815 64.4867 50.206 60.2202 51.8064 54.3934C52.003 53.6284 52.1177 53.1822 52.1505 53.0547C52.2003 52.9246 52.2259 52.8069 52.2271 52.7018C52.1061 52.5981 52.0324 52.4608 52.006 52.29C51.9611 51.9996 52.1223 51.345 52.4896 50.3263C52.8411 49.4324 52.9945 48.8403 52.9496 48.5499L52.8666 48.3528C52.5206 47.8116 52.3121 47.4241 52.2409 47.1902C52.167 46.7119 52.7245 46.1885 53.9134 45.6199C55.0997 45.0343 56.5981 44.4879 58.4086 43.9806C60.2165 43.4563 62.0173 43.0556 63.8109 42.7783C66.8515 42.3083 68.966 42.2963 70.1543 42.7423C71.0337 43.1136 71.5447 43.7604 71.6873 44.6829C71.888 45.9811 71.4818 47.653 70.4687 49.6985C69.4556 51.7441 68.1029 53.7984 66.4104 55.8615C64.7323 57.9049 62.9338 59.6783 61.0149 61.1817C59.096 62.6852 57.3422 63.5597 55.7536 63.8052C55.4974 63.8448 55.247 63.866 55.0026 63.8688C54.661 63.9216 54.308 64.6933 53.9437 66.1838C53.5965 67.6717 53.2593 69.2804 52.9319 71.0101C52.6779 72.3086 52.4487 73.4285 52.2444 74.3696C52.04 75.3106 51.861 75.793 51.7073 75.8168Z" fill="#010101"/>
<path d="M46.3726 72.3644L46.1084 72.3528C45.241 72.172 44.5109 72.0313 43.9181 71.9305C43.1348 71.8417 42.5762 71.7357 42.2423 71.6124C41.9084 71.4891 41.7138 71.2481 41.6583 70.8893C41.5738 70.3427 41.7399 69.1539 42.1565 67.323C42.3818 66.2913 42.5094 65.4757 42.5392 64.8765L41.7495 66.0479C39.5154 69.6989 37.7492 71.6247 36.451 71.8254C36.1094 71.8782 34.4533 71.5745 31.4829 70.9143C30.8651 70.7649 30.4546 70.0325 30.2513 68.7172C29.842 66.0695 30.158 62.2865 31.1993 57.3682C32.1305 52.8692 33.2353 49.5501 34.5138 47.4111C34.8262 46.9431 35.0638 46.5565 35.2265 46.2515C35.405 45.8217 35.571 45.5949 35.7248 45.5711C35.8641 45.5671 36.2015 46.1096 36.7372 47.1986C37.4056 48.3546 37.7939 49.2828 37.9022 49.9831C37.9761 50.4614 37.9252 50.9241 37.7494 51.371C37.5435 51.9625 37.3945 53.1486 37.3025 54.9294C37.3026 55.1567 37.2515 55.2783 37.149 55.2942C37.1148 55.2995 37.0609 55.2903 36.9873 55.2667C36.9308 55.2404 36.8769 55.2313 36.8256 55.2392C36.5865 55.2762 36.0645 57.7268 35.2598 62.591C34.9536 64.4574 34.8506 65.7151 34.951 66.3642C34.9959 66.6546 35.1037 66.7866 35.2745 66.7602C35.6503 66.7021 36.3345 65.923 37.3269 64.4228C38.1605 63.1396 40.751 58.9088 45.0984 51.7305C45.4094 51.1402 45.7315 50.3383 46.0646 49.3249L46.4761 48.7628C47.802 46.7039 48.5654 45.589 48.7663 45.418C49.1448 45.377 49.7322 46.2919 50.5286 48.1627C50.9261 49.1506 51.1395 49.7386 51.1685 49.9265C51.1805 50.117 51.0979 50.3746 50.9207 50.6994C50.1831 52.0377 49.396 55.0365 48.5596 59.6958C47.8043 63.9752 47.3278 66.5499 47.13 67.42C46.978 68.0207 46.9125 68.3894 46.9336 68.526C46.9416 68.5773 46.9692 68.643 47.0166 68.7231C47.081 68.8006 47.1654 69.1199 47.2696 69.6809C47.3065 69.9201 47.1073 70.668 46.6719 71.9246C46.5749 72.202 46.4751 72.3486 46.3726 72.3644Z" fill="#010101"/>
<path d="M15.1617 86.686C14.5809 86.7758 14.0165 86.8018 13.4685 86.7641C11.902 86.8138 10.3177 86.6914 8.71557 86.3969C7.44853 86.1205 6.71996 85.3673 6.52985 84.1374C6.40311 83.3175 6.52337 82.3981 6.89061 81.3794C7.15816 80.621 7.58869 79.8985 8.1822 79.2121C9.84721 77.3107 10.7139 76.3547 10.7822 76.3441C10.8676 76.3309 10.9623 76.4912 11.0664 76.8249C11.2166 77.3439 11.7765 78.4204 12.7462 80.0545L12.7956 80.2043C12.8193 80.3581 12.7662 80.5237 12.6363 80.7012C12.4656 80.9549 12.2537 81.4512 12.0006 82.1899C11.9416 82.3739 11.9174 82.5001 11.9279 82.5684C11.9464 82.688 12.3742 82.6831 13.2112 82.5537C15.0561 82.2686 16.9583 81.3362 18.9179 79.7565C19.6324 79.1738 20.0894 78.7359 20.289 78.4427C21.5886 76.4403 22.1129 74.6277 21.8621 73.0049C21.7116 72.0312 21.3168 71.2877 20.6778 70.7743C20.0558 70.2583 19.3552 70.0255 18.576 70.076C10.1475 70.7666 5.74047 69.865 5.35497 67.371C5.20711 66.4144 5.40539 65.2643 5.94982 63.9209C6.51132 62.5748 7.26267 61.1556 8.20386 59.6634C9.16214 58.1685 10.1796 56.717 11.2562 55.3088C12.3472 53.8808 13.374 52.6027 14.3365 51.4745C15.2963 50.3292 16.0428 49.4443 16.5759 48.8197C17.1261 48.1924 17.8214 47.4291 18.6618 46.5296C19.5193 45.6275 20.455 44.722 21.4689 43.8132C22.4972 42.8847 23.5269 42.0784 24.5581 41.3943C25.5892 40.7102 26.5404 40.3008 27.4115 40.1662C27.9582 40.0817 28.4293 40.1313 28.825 40.315C29.2352 40.479 29.5205 40.7409 29.6811 41.1009C29.7101 41.2888 29.7838 41.4261 29.9022 41.5127L30.5225 40.6036C31.3166 39.2915 32.1878 38.1949 33.136 37.3137L33.5716 37.2464C33.891 37.3894 34.2623 37.4719 34.6855 37.494C35.1231 37.4963 35.5666 37.4802 36.016 37.4457C36.4654 37.4112 36.859 37.4116 37.1968 37.4468C37.549 37.4624 37.7436 37.5897 37.7805 37.8289C37.8149 38.0509 37.6916 38.3848 37.4107 38.8305C36.7386 39.9138 36.2043 40.7572 35.8079 41.3607C35.4285 41.9616 35.1522 42.3803 34.9789 42.617C34.8056 42.8537 34.6762 42.9786 34.5908 42.9918C34.5396 42.9997 34.4863 42.938 34.431 42.8066C34.3902 42.6555 34.3303 42.5511 34.2514 42.4933C33.4571 43.578 32.5816 45.0426 31.6249 46.8871C30.7088 48.6553 29.8987 50.4858 29.1943 52.3787C28.4873 54.2545 28.209 55.6792 28.3595 56.6529C28.3859 56.8237 28.4189 56.9236 28.4583 56.9524C28.5148 56.9787 28.5944 56.9839 28.6968 56.968C28.9531 56.9284 29.0904 56.9684 29.1089 57.088C29.167 57.4638 28.6197 58.4492 27.467 60.044C26.7764 61.0078 26.303 61.5095 26.0468 61.5491C25.4489 61.6415 24.7046 59.9376 23.8137 56.4373C23.6738 55.5319 23.7835 54.5443 24.1428 53.4743C24.4995 52.3872 24.8996 51.3547 25.3431 50.3766C25.717 49.5143 25.8987 49.049 25.8881 48.9806C25.8775 48.9123 25.7842 48.8743 25.6081 48.8665C25.4294 48.8417 25.3308 48.7694 25.3123 48.6499C25.2964 48.5474 25.442 48.1313 25.749 47.4018C26.1164 46.6104 26.3236 46.0274 26.3707 45.6529C25.4864 45.9295 23.9222 47.2381 21.678 49.5789C19.4508 51.9171 17.2495 54.5923 15.0741 57.6045C12.9158 60.6142 11.5062 63.2632 10.8455 65.5516L10.8437 65.7093C10.8886 65.9997 11.252 66.1446 11.9341 66.1441C12.6332 66.141 13.509 66.0931 14.5616 66.0004C15.8533 65.8707 17.224 65.7987 18.6735 65.7846C20.123 65.7704 21.4307 65.9705 22.5966 66.385C23.7626 66.7994 24.5746 67.5834 25.0328 68.7369C25.5053 69.8707 25.9469 70.7469 26.3573 71.3656C26.7678 71.9843 27.0593 72.6825 27.2321 73.4604C27.4063 74.5878 27.1962 75.7746 26.6018 77.0209C25.4156 79.5304 23.4801 81.8322 20.7955 83.9263C18.7649 85.4994 16.887 86.4194 15.1617 86.686Z" fill="#010101"/>
</g>
<defs>
<clipPath id="clip0_940_339">
<rect width="202" height="68" fill="white" transform="translate(0 19)"/>
</clipPath>
</defs>
</svg>
