<svg width="57" height="56" viewBox="0 0 57 56" fill="none" xmlns="http://www.w3.org/2000/svg">
<path d="M16.055 53.125H40.945C45.797 53.125 48.211 50.664 48.211 45.789V24.508H31.242C28.242 24.508 26.836 23.078 26.836 20.078V2.875H16.055C11.227 2.875 8.789 5.359 8.789 10.235V45.789C8.789 50.687 11.227 53.125 16.055 53.125ZM31.313 21.297H47.953C47.789 20.336 47.109 19.398 46.008 18.25L33.07 5.102C31.992 3.977 31.008 3.297 30.023 3.132V20.032C30.023 20.875 30.469 21.297 31.313 21.297ZM19.477 34.657C18.516 34.657 17.836 33.977 17.836 33.063C17.836 32.148 18.516 31.469 19.476 31.469H37.546C38.484 31.469 39.211 32.149 39.211 33.062C39.211 33.977 38.484 34.656 37.547 34.656L19.477 34.657ZM19.477 43.586C18.516 43.586 17.836 42.906 17.836 41.992C17.836 41.078 18.516 40.398 19.476 40.398H37.546C38.484 40.398 39.211 41.078 39.211 41.992C39.211 42.906 38.484 43.586 37.547 43.586H19.477Z" fill="url(#paint0_linear_620_4690)"/>
<defs>
<linearGradient id="paint0_linear_620_4690" x1="28.5" y1="2.875" x2="28.5" y2="53.125" gradientUnits="userSpaceOnUse">
<stop stop-color="#474747"/>
<stop offset="1" stop-color="#ADADAD"/>
</linearGradient>
</defs>
</svg>
