<svg width="326" height="100" viewBox="0 0 326 100" fill="none" xmlns="http://www.w3.org/2000/svg">
<g clip-path="url(#clip0_939_91)">
<path d="M66.9737 10.9455L94.3663 49.3794L28.5399 38.338L66.9737 10.9455Z" fill="white"/>
<path fill-rule="evenodd" clip-rule="evenodd" d="M88.9717 81.5432L61.5792 43.1093L23.1453 70.5018L44.2749 74.046L54.0169 88.1947L67.8423 77.999L88.9717 81.5432Z" fill="white"/>
<path fill-rule="evenodd" clip-rule="evenodd" d="M64.6398 24.8383L91.8711 64.2332L69.5015 60.4811L66.1528 71.5198L59.6562 70.4301L59.035 58.7255L58.8783 58.6992L54.4573 69.5579L47.9759 68.4707L48.4156 56.9443L26.0447 53.1919L64.6398 24.8383Z" fill="#F4431C"/>
<path d="M137.125 41.7333C137.244 40.0528 136.798 38.7515 135.786 37.8294C134.79 36.9073 133.213 36.4463 131.057 36.4463C129.629 36.4463 128.41 36.6322 127.398 37.004C126.387 37.3609 125.591 37.8666 125.011 38.521C124.431 39.1605 124.067 39.9041 123.918 40.7518C123.785 41.421 123.822 42.0159 124.03 42.5364C124.238 43.057 124.602 43.518 125.123 43.9195C125.658 44.3211 126.32 44.6706 127.108 44.968C127.912 45.2655 128.811 45.5257 129.808 45.7488L133.555 46.6411C135.727 47.1319 137.608 47.7863 139.199 48.6042C140.806 49.4073 142.107 50.3815 143.103 51.5266C144.1 52.6569 144.784 53.9582 145.156 55.4305C145.528 56.9029 145.557 58.5537 145.245 60.3829C144.769 63.2681 143.631 65.7443 141.832 67.8116C140.047 69.8788 137.712 71.4627 134.827 72.5632C131.957 73.6637 128.618 74.214 124.811 74.214C121.003 74.214 117.769 73.6414 115.107 72.4963C112.459 71.3363 110.541 69.5888 109.351 67.2539C108.161 64.9189 107.842 61.9743 108.392 58.4198H118.944C118.78 59.8922 118.966 61.1191 119.501 62.1007C120.052 63.0822 120.899 63.8258 122.044 64.3315C123.19 64.8371 124.573 65.09 126.194 65.09C127.681 65.09 128.982 64.8892 130.098 64.4876C131.228 64.0861 132.128 63.5284 132.797 62.8145C133.481 62.1007 133.898 61.2827 134.046 60.3606C134.195 59.5129 134.054 58.7768 133.622 58.1521C133.206 57.5275 132.492 56.9847 131.481 56.5236C130.484 56.0626 129.176 55.6462 127.555 55.2744L122.981 54.159C119.204 53.2369 116.341 51.7646 114.393 49.742C112.459 47.7194 111.775 44.9755 112.34 41.5103C112.816 38.6697 113.991 36.186 115.865 34.0593C117.754 31.9326 120.141 30.2818 123.026 29.1069C125.926 27.9172 129.116 27.3223 132.596 27.3223C136.136 27.3223 139.11 27.9246 141.519 29.1292C143.944 30.319 145.691 31.9995 146.762 34.1709C147.848 36.3273 148.16 38.8481 147.699 41.7333H137.125Z" fill="white"/>
<path d="M177.502 27.9469H188.523L183.637 57.416C183.072 60.8217 181.771 63.7887 179.733 66.3169C177.711 68.8303 175.13 70.7785 171.992 72.1617C168.854 73.5299 165.359 74.214 161.508 74.214C157.641 74.214 154.376 73.5299 151.714 72.1617C149.052 70.7785 147.126 68.8303 145.936 66.3169C144.747 63.7887 144.427 60.8217 144.977 57.416L149.863 27.9469H160.905L156.154 56.4567C155.901 58.0332 156.02 59.4386 156.511 60.673C157.016 61.8925 157.834 62.8592 158.964 63.573C160.095 64.272 161.478 64.6215 163.114 64.6215C164.765 64.6215 166.274 64.272 167.642 63.573C169.011 62.8592 170.141 61.8925 171.033 60.673C171.925 59.4386 172.498 58.0332 172.751 56.4567L177.502 27.9469Z" fill="white"/>
<path d="M180.728 73.634L188.313 27.9469H207.186C210.606 27.9469 213.462 28.5641 215.752 29.7985C218.042 31.018 219.671 32.7729 220.638 35.0632C221.604 37.3386 221.827 40.0379 221.307 43.1611C220.801 46.3139 219.671 48.9984 217.916 51.2143C216.176 53.4154 213.93 55.0959 211.179 56.2559C208.442 57.416 205.334 57.996 201.854 57.996H189.919L191.392 49.2958H201.274C202.925 49.2958 204.353 49.0802 205.557 48.6489C206.762 48.2027 207.721 47.5335 208.435 46.6411C209.164 45.7339 209.647 44.5739 209.885 43.1611C210.108 41.7482 210.004 40.5807 209.573 39.6587C209.156 38.7217 208.42 38.0227 207.364 37.5617C206.323 37.0858 204.985 36.8478 203.349 36.8478H197.906L191.771 73.634H180.728ZM209.907 52.7536L217.827 73.634H205.78L198.106 52.7536H209.907Z" fill="white"/>
<path d="M249.759 42.871C249.669 41.9341 249.461 41.1087 249.134 40.3948C248.807 39.6661 248.361 39.0489 247.795 38.5433C247.23 38.0376 246.531 37.6584 245.699 37.4056C244.866 37.1379 243.899 37.004 242.798 37.004C240.597 37.004 238.56 37.5394 236.686 38.6102C234.812 39.681 233.228 41.2426 231.934 43.2949C230.64 45.3324 229.756 47.8086 229.28 50.7235C228.804 53.6533 228.789 56.1518 229.235 58.2191C229.696 60.2863 230.618 61.8627 232.001 62.9484C233.384 64.034 235.214 64.5769 237.489 64.5769C239.527 64.5769 241.326 64.2497 242.888 63.5953C244.449 62.9261 245.713 61.9817 246.68 60.7622C247.662 59.5427 248.279 58.1075 248.532 56.4567L250.562 56.7021H239.452L240.791 48.6489H260.466L259.463 54.6944C258.793 58.7842 257.351 62.2866 255.135 65.2015C252.934 68.1164 250.182 70.3547 246.881 71.9163C243.594 73.4778 239.988 74.2586 236.061 74.2586C231.719 74.2586 228.053 73.3142 225.063 71.4255C222.074 69.5367 219.947 66.8449 218.683 63.3499C217.419 59.8401 217.181 55.6759 217.969 50.8574C218.594 47.1096 219.702 43.7857 221.293 40.8856C222.9 37.9707 224.863 35.5019 227.183 33.4793C229.518 31.4567 232.098 29.9249 234.924 28.8838C237.749 27.8428 240.687 27.3223 243.735 27.3223C246.368 27.3223 248.762 27.7015 250.919 28.46C253.075 29.2185 254.919 30.2893 256.451 31.6724C257.983 33.0555 259.135 34.6988 259.909 36.6025C260.697 38.5061 261.039 40.5956 260.935 42.871H249.759Z" fill="white"/>
<path d="M255.563 73.634L263.148 27.9469H295.004L293.487 36.9148H272.674L271.157 46.2842H290.342L288.825 55.2744H269.64L268.123 64.6661H288.936L287.419 73.634H255.563Z" fill="white"/>
</g>
<defs>
<clipPath id="clip0_939_91">
<rect width="326" height="100" fill="white"/>
</clipPath>
</defs>
</svg>
